<?xml version="1.0" encoding="UTF-8" standalone="no"?>
<svg
   viewBox="0 0 600 600"
   version="1.1"
   id="svg4"
   sodipodi:docname="wave.svg"
   width="600"
   height="600"
   inkscape:version="1.1.2 (0a00cf5339, 2022-02-04)"
   xmlns:inkscape="http://www.inkscape.org/namespaces/inkscape"
   xmlns:sodipodi="http://sodipodi.sourceforge.net/DTD/sodipodi-0.dtd"
   xmlns="http://www.w3.org/2000/svg"
   xmlns:svg="http://www.w3.org/2000/svg">
  <defs
     id="defs8" />
  <sodipodi:namedview
     id="namedview6"
     pagecolor="#ffffff"
     bordercolor="#666666"
     borderopacity="1.0"
     inkscape:pageshadow="2"
     inkscape:pageopacity="0.0"
     inkscape:pagecheckerboard="0"
     showgrid="false"
     width="300px"
     height="320px"
     inkscape:zoom="0.28308824"
     inkscape:cx="393.87013"
     inkscape:cy="160.72727"
     inkscape:window-width="1366"
     inkscape:window-height="699"
     inkscape:window-x="0"
     inkscape:window-y="32"
     inkscape:window-maximized="1"
     inkscape:current-layer="svg4" />
  <g
     id="g10"
     transform="matrix(0.13333333,0,0,-0.13333333,-41.919264,635.36479)">
    <path
       d="m 4304.62,2468.14 c -97.76,173 -210.14,341.88 -274.7,517.73 -72.86,198.49 -85.33,407.31 -146.55,607.9 -54.26,177.75 -137.6,349.77 -265.27,486.14 -127.67,136.39 -302.97,234.73 -490.7,247.72 -254.17,17.6 -496.2,-120.43 -677.17,-297.34 -95.3,-93.15 -178.74,-197.25 -273.15,-291.24 -91.59,-91.21 -196.1,-153 -301.72,-224.15 -224,-150.89 -518.15,-166.49 -763.45,-270.69 -297.297,-126.28 -537.797,-376.93 -649.254,-676.66 -59.32,-159.54 -81.57,-342.51 -8.492,-496.39 114.891,-241.91 422.68,-331.7 693.326,-321.32 270.64,10.39 536.91,92.76 807.4,79.02 249.8,-12.68 487.7,-106.69 713.4,-213.03 225.69,-106.35 446.28,-226.92 685.5,-298.94 239.23,-72.01 504.61,-91.99 735.3,3.37 190.61,78.81 352.71,250.08 390.91,453.96 47.3,252.51 -52.48,476.47 -175.38,693.92"
       style="fill:#fcd5c5;fill-opacity:1;fill-rule:nonzero;stroke:none"
       id="path14" />
    <path
       d="m 4041.21,3122.48 c -5.61,38.33 -2.08,80.58 25.31,110.31 19.31,20.95 48.59,33.14 78.47,37.13 29.88,4 60.46,0.4 89.81,-6 46.93,-10.25 92.41,-27.98 129.72,-55.64 37.29,-27.66 66.01,-65.73 75.92,-108.37 9.89,-42.63 -0.36,-89.64 -31.28,-123.09 -26.7,-28.88 -66.48,-45.96 -107.18,-54.12 -43.12,-8.65 -112.41,-21.84 -148.37,6.99 -39.66,31.8 -70.59,73.08 -90.33,117.37 -10.78,24.19 -18.29,49.57 -22.07,75.42"
       style="fill:#fcd5c5;fill-opacity:1;fill-rule:nonzero;stroke:none"
       id="path16" />
    <path
       d="m 1130.21,3373.96 c -92.44,-34.47 -195.776,-51.6 -289.597,-21.1 -62.84,20.43 -119.023,62.59 -153.105,119.2 -34.078,56.61 -44.922,127.51 -25.856,190.77 19.063,63.27 68.758,117.31 131.407,138.31 57.066,19.14 119.054,11.04 179.238,10.15 113.403,-1.67 227.113,23.55 329.163,73.03 33.17,16.08 66.1,34.99 102.68,39.49 55.55,6.84 113.79,-24.38 138.84,-74.43 40.81,-81.49 -19.22,-169.15 -69.86,-230.53 -57.79,-70.03 -127.39,-130.28 -204.86,-177.62 -43.74,-26.73 -90.01,-49.35 -138.05,-67.27"
       style="fill:#fcd5c5;fill-opacity:1;fill-rule:nonzero;stroke:none"
       id="path18" />
    <path
       d="m 3880.19,1338.39 c 50.76,-27.22 112.23,-30.15 168.1,-16.24 31.96,7.93 62.32,21.14 90.92,37.33 24.02,13.63 49.91,43.36 78.14,38.35 65.77,-11.67 130.49,-23.49 197.6,-15.45 73.08,8.79 146.16,41.97 188.5,102.16 9.16,13 16.67,26.9 22.75,41.44 15.5,36.75 22.15,77.55 24.01,117.66 2.62,55.34 -3.89,113.23 -33.02,160.37 -29.08,47.19 -84.9,80.85 -139.44,71.1 27.74,35.85 35.31,86.35 19.34,128.74 -15.98,42.46 -55.02,75.38 -99.51,84 -2.02,46.92 -4.15,94.22 -15.39,139.87 -11.29,45.59 -32.59,89.96 -67.58,121.28 -49.86,44.63 -124.37,57.41 -188.19,37.33 -63.81,-20.07 -116.05,-70.51 -143.96,-131.28 -27.91,-60.83 -32.55,-130.93 -18.91,-196.44 -54.01,-15.88 -98.81,-60.08 -115.48,-113.83 -16.67,-53.79 -4.68,-115.57 30.9,-159.26 -12.84,-13.26 -25.04,-27.31 -36.22,-42.12 -41.45,-54.49 -70.31,-118.57 -74.36,-186.42 -5.16,-86.29 35.64,-177.74 111.8,-218.59"
       style="fill:#f78f5d;fill-opacity:1;fill-rule:nonzero;stroke:none"
       id="path20" />
    <path
       d="m 3880.19,1338.39 c 50.76,-27.22 112.23,-30.15 168.1,-16.24 31.96,7.93 62.32,21.14 90.92,37.33 24.02,13.63 49.91,43.36 78.14,38.35 65.77,-11.67 130.49,-23.49 197.6,-15.45 73.08,8.79 146.16,41.97 188.5,102.16 9.16,13 16.67,26.9 22.75,41.44 -45.92,-31 -99.5,-50.6 -154.63,-55.34 -94.86,-8.09 -192.65,28.02 -259.44,95.87 -94.44,-21.14 -197.72,1.65 -274.47,60.56 -40.05,30.74 -72.54,71.05 -94.91,116.33 -41.45,-54.49 -70.31,-118.57 -74.36,-186.42 -5.16,-86.29 35.64,-177.74 111.8,-218.59"
       style="fill:#f78f5d;fill-opacity:1;fill-rule:nonzero;stroke:none"
       id="path22" />
    <path
       d="m 4051.21,1700.55 c 0.51,0.83 1.53,1.25 2.49,0.95 1.14,-0.35 1.77,-1.56 1.42,-2.69 -7.97,-26.2 -8.48,-53.65 -1.95,-78.53 3.14,-12.45 8.03,-24.2 14.53,-34.85 6.26,-10.76 14.05,-20.54 22.99,-28.9 2.2,-2.13 4.59,-4.03 6.9,-6 2.45,-1.81 4.9,-3.62 7.46,-5.22 5.06,-3.29 10.34,-6.15 15.75,-8.53 5.29,-2.55 10.69,-4.72 16.15,-7.03 5.43,-2.3 10.97,-4.6 16.68,-6.85 7.4,-3.01 15.18,-5.83 23.2,-8.64 l 1.76,44.54 1.98,70.59 0.37,70.72 c 0.09,94.43 -4.3,189.06 -11.05,284.02 -0.19,2.55 1.47,4.94 4.04,5.58 2.87,0.74 5.8,-1 6.54,-3.88 17.66,-69.49 31.78,-139.93 43.28,-210.97 l 2.64,2.66 c 4.48,4.39 9.29,7.77 14.68,10.56 5.37,2.81 10.9,5.72 15.36,9.78 4.45,3.86 8.56,8.29 12.19,13.17 3.81,4.79 7.17,10.05 9.88,15.72 5.66,11.26 8.76,24.19 7.91,38.17 l -0.01,0.03 1.08,2.02 c 1.04,0.62 2.39,0.28 3.01,-0.76 7.71,-12.86 10.24,-29.11 8.73,-44.9 -0.86,-7.91 -2.67,-15.79 -5.34,-23.45 -2.85,-7.56 -6.53,-14.88 -11.02,-21.85 -4.48,-6.74 -8.9,-13.81 -14.18,-20.13 -5.27,-6.34 -11.83,-11.26 -19.15,-14.44 -6.3,-2.75 -12.94,-4.54 -19.78,-5.44 1.59,-10.73 3.15,-21.46 4.63,-32.2 l 8.53,-71.54 6.9,-71.8 4.47,-72.04 2.85,-72.21 c 0.28,-24.08 1.18,-48.21 2.17,-72.38 l 1.52,-72.58 c -0.26,-24.19 -1.11,-48.37 -2.92,-72.48 -2.34,-24.06 -5.62,-48.03 -9.58,-71.89 l -7.19,-35.61 c -2.67,-11.83 -5.13,-23.67 -7.96,-35.44 -6.14,-23.5 -12.67,-46.88 -19.95,-70.06 -7.81,-23.09 -16.13,-46.02 -25.33,-68.661 -9.85,-22.519 -20.13,-44.867 -32.49,-66.597 -0.84,-1.461 -2.36,-2.551 -4.16,-2.801 -3.09,-0.402 -5.91,1.769 -6.31,4.859 l -0.02,0.11 c -3.26,24.89 -4.45,49.172 -5.2,73.25 -1.17,24.172 -1.46,48.058 -1.26,71.781 -0.32,23.809 0.11,47.409 0.93,70.899 0.1,11.79 0.59,23.52 0.86,35.25 l 1.63,35.08 c 0.84,23.4 2.37,46.67 4.85,69.88 1.92,23.24 4.81,46.4 8.28,69.57 l 9.5,69.67 c 2.59,23.3 5.07,46.64 6.94,70.03 l 3.78,60.81 c -11.03,-0.3 -22.25,0.53 -33.48,2.83 -15.13,2.97 -30.09,9.3 -43.01,18.82 -12.85,9.52 -23.82,20.91 -33.45,32.96 -9.67,12.05 -17.49,25.41 -23.24,39.51 -5.6,14.18 -8.92,29.14 -10.04,43.96 -2,29.68 4.66,59.28 19.21,83.57"
       style="fill:#d14633;fill-opacity:1;fill-rule:nonzero;stroke:none"
       id="path24" />
    <path
       d="m 4377.12,1945.08 c -14.78,0 -26.75,18.07 -26.75,40.35 0,22.28 11.97,40.35 26.75,40.35 14.76,0 26.74,-18.07 26.74,-40.35 0,-22.28 -11.98,-40.35 -26.74,-40.35"
       style="fill:#f9ac76;fill-opacity:1;fill-rule:nonzero;stroke:none"
       id="path26" />
    <path
       d="m 4157.72,2140.01 c -14.77,0 -26.75,18.06 -26.75,40.34 0,22.28 11.98,40.34 26.75,40.34 14.77,0 26.74,-18.06 26.74,-40.34 0,-22.28 -11.97,-40.34 -26.74,-40.34"
       style="fill:#f9ac76;fill-opacity:1;fill-rule:nonzero;stroke:none"
       id="path28" />
    <path
       d="m 4274.66,2207.1 c -8.37,0 -15.16,10.24 -15.16,22.89 0,12.64 6.79,22.89 15.16,22.89 8.39,0 15.18,-10.25 15.18,-22.89 0,-12.65 -6.79,-22.89 -15.18,-22.89"
       style="fill:#f9ac76;fill-opacity:1;fill-rule:nonzero;stroke:none"
       id="path30" />
    <path
       d="m 4146.15,2022.15 c -8.38,0 -15.18,10.25 -15.18,22.89 0,12.64 6.8,22.9 15.18,22.9 8.38,0 15.17,-10.26 15.17,-22.9 0,-12.64 -6.79,-22.89 -15.17,-22.89"
       style="fill:#f9ac76;fill-opacity:1;fill-rule:nonzero;stroke:none"
       id="path32" />
    <path
       d="m 4321.81,2101.93 c -5.72,0 -10.37,7 -10.37,15.64 0,8.64 4.65,15.64 10.37,15.64 5.73,0 10.37,-7 10.37,-15.64 0,-8.64 -4.64,-15.64 -10.37,-15.64"
       style="fill:#f9ac76;fill-opacity:1;fill-rule:nonzero;stroke:none"
       id="path34" />
    <path
       d="m 4452.37,891.059 c -15.37,12.671 -36.79,17.64 -56.16,13.062 18.29,33.149 36.28,67.77 39.86,105.469 3.58,37.69 -10.57,79.52 -43.51,98.17 -34.98,19.82 -81.48,7.56 -110.94,-19.79 -29.46,-27.36 -44.86,-66.55 -55.19,-105.38 -1.72,19.1 -18.7,35.66 -37.85,36.91 -19.15,1.24 -38.12,-12.99 -42.3,-31.719 -7.56,21.819 -15.33,44.029 -29.31,62.389 -13.99,18.36 -35.49,32.55 -58.56,31.8 -27.59,-0.9 -51.07,-23.39 -60.27,-49.42 -9.2,-26.04 -6.55,-54.78 -0.6,-81.741 -10.6,16.179 -32.21,24.242 -50.81,18.941 0.69,34.24 1.16,69.71 -12.41,101.15 -13.57,31.45 -45.3,57.81 -79.3,53.75 -32.74,-3.92 -56.46,-33.68 -69.05,-64.14 -20.4,-49.38 -20.82,-106.69 -1.14,-156.381 -21.16,15.641 -52.57,15.601 -73.69,-0.07 -21.13,-15.668 -30.27,-43.161 -21.43,-67.93 l 106.15,0.293 h 682.94 c 0.8,19.91 -11.06,41.976 -26.43,54.637"
       style="fill:#64ab91;fill-opacity:1;fill-rule:nonzero;stroke:none"
       id="path36" />
    <path
       d="m 3966.65,836.129 c -0.04,0.101 -0.07,0.203 -0.11,0.293 h 406.04 c 0,-0.051 0,-0.09 -0.01,-0.141 h -351.32 l -54.6,-0.152"
       style="fill:#64ab91;fill-opacity:1;fill-rule:nonzero;stroke:none"
       id="path38" />
    <path
       d="m 4372.58,836.422 h -406.04 c -4.36,12.668 0.35,26.648 11.13,34.648 5.45,4.039 12.22,6.059 18.99,6.059 6.74,0 13.49,-2 18.92,-6.02 -10.12,25.563 -9.91,55.039 0.59,80.45 6.47,15.66 18.68,30.98 35.52,32.992 1.2,0.14 2.4,0.211 3.58,0.211 16.11,0 30.71,-12.793 37.21,-27.864 6.98,-16.179 6.73,-34.418 6.38,-52.039 1.98,0.571 4.03,0.84 6.08,0.84 7.85,0 15.74,-3.98 20.07,-10.59 -3.07,13.879 -4.43,28.672 0.3,42.063 4.74,13.387 16.82,24.957 31.01,25.418 0.3,0.012 0.6,0.019 0.9,0.019 11.52,0 22.22,-7.168 29.22,-16.371 7.2,-9.449 11.19,-20.879 15.08,-32.097 2.06,9.25 11.13,16.351 20.56,16.351 0.4,0 0.8,-0.012 1.2,-0.031 9.85,-0.652 18.58,-9.16 19.47,-19 5.31,19.988 13.24,40.148 28.39,54.219 10.01,9.3 23.85,15.199 37.28,15.199 6.9,0 13.68,-1.559 19.79,-5.008 16.95,-9.601 24.23,-31.121 22.38,-50.512 -1.83,-19.398 -11.09,-37.211 -20.51,-54.257 2.46,0.578 4.97,0.867 7.49,0.867 7.72,0 15.45,-2.668 21.41,-7.59 7.86,-6.481 13.95,-17.75 13.6,-27.957"
       style="fill:#266c55;fill-opacity:1;fill-rule:nonzero;stroke:none"
       id="path40" />
    <path
       d="m 375.734,891.059 c 15.371,12.671 36.778,17.64 56.161,13.062 -18.29,33.149 -36.282,67.77 -39.864,105.469 -3.582,37.69 10.567,79.52 43.512,98.17 34.977,19.82 81.48,7.56 110.934,-19.79 29.457,-27.36 44.859,-66.55 55.191,-105.38 1.723,19.1 18.703,35.66 37.852,36.91 19.148,1.24 38.128,-12.99 42.308,-31.719 7.551,21.819 15.317,44.029 29.301,62.389 13.98,18.36 35.488,32.55 58.555,31.8 27.597,-0.9 51.078,-23.39 60.273,-49.42 9.195,-26.04 6.555,-54.78 0.606,-81.741 10.597,16.179 32.203,24.242 50.816,18.941 -0.699,34.24 -1.164,69.71 12.402,101.15 13.563,31.45 45.301,57.81 79.309,53.75 32.72,-3.92 56.45,-33.68 69.04,-64.14 20.4,-49.38 20.82,-106.69 1.14,-156.381 21.16,15.641 52.56,15.601 73.69,-0.07 21.13,-15.668 30.26,-43.161 21.42,-67.93 l -106.13,0.293 H 349.297 c -0.793,19.91 11.066,41.976 26.437,54.637"
       style="fill:#64ab91;fill-opacity:1;fill-rule:nonzero;stroke:none"
       id="path42" />
    <path
       d="m 857.461,836.141 -50.613,0.14 H 455.52 c -0.004,0.051 -0.004,0.09 -0.004,0.141 h 401.906 l 0.039,-0.281"
       style="fill:#64ab91;fill-opacity:1;fill-rule:nonzero;stroke:none"
       id="path44" />
    <path
       d="M 857.422,836.422 H 455.516 c -0.344,10.207 5.734,21.476 13.605,27.957 5.961,4.922 13.692,7.59 21.406,7.59 2.516,0 5.032,-0.289 7.481,-0.867 -9.403,17.046 -18.66,34.859 -20.5,54.257 -1.848,19.391 5.433,40.911 22.383,50.512 6.105,3.449 12.894,5.008 19.793,5.008 13.425,0 27.261,-5.899 37.269,-15.199 15.152,-14.071 23.078,-34.231 28.395,-54.219 0.882,9.84 9.621,18.348 19.472,19 0.399,0.019 0.801,0.031 1.2,0.031 9.429,0 18.503,-7.101 20.566,-16.351 3.887,11.218 7.879,22.648 15.07,32.097 7.012,9.203 17.703,16.371 29.231,16.371 0.297,0 0.593,-0.007 0.89,-0.019 14.2,-0.461 26.282,-12.031 31.008,-25.418 4.731,-13.391 3.371,-28.184 0.313,-42.063 4.32,6.61 12.207,10.59 20.058,10.59 2.051,0 4.098,-0.269 6.078,-0.84 -0.355,17.621 -0.593,35.86 6.383,52.039 6.496,15.071 21.106,27.864 37.211,27.864 1.188,0 2.387,-0.071 3.59,-0.211 16.832,-2.012 29.035,-17.332 35.512,-32.992 10.5,-25.411 10.715,-54.887 0.59,-80.45 2.496,1.84 5.265,3.262 8.183,4.262 V 849.84 h 34.817 l 1.902,-13.418"
       style="fill:#266c55;fill-opacity:1;fill-rule:nonzero;stroke:none"
       id="path46" />
    <path
       d="m 1504.59,1396.12 c -52.43,-63.1 -136.22,-93.74 -218.14,-97.96 -68.43,-3.5 -136.37,9.55 -202.33,26.67 -12.17,3.15 -29.24,11.93 -41.6,11.79 -13.83,-0.2 -31.29,-11.35 -44.188,-16.3 -31.035,-11.89 -62.512,-22.79 -94.664,-31.28 -35.016,-9.21 -70.855,-15.66 -107.078,-17.36 -65.91,-3.06 -134.875,11.49 -189.192,47.48 -16.582,10.95 -31.812,23.95 -45.144,39.04 -53.981,60.96 -70.031,152.96 -39.871,228.61 30.168,75.61 105.094,131.38 186.183,138.51 -89.183,92.24 -123.234,234.14 -85.597,356.79 37.633,122.64 145.39,221.05 271,247.43 125.561,26.34 263.771,-20.42 347.571,-117.61 83.76,-97.14 109.66,-240.78 65.09,-361.1 32.63,15.17 74.15,18.82 102.42,-3.45 28.28,-22.21 29.34,-75.21 -3.59,-89.67 14.7,-5.23 28.76,-12.02 42,-20.22 48.98,-30.26 86.57,-79.09 101.84,-134.72 19.35,-70.66 2.14,-150.29 -44.71,-206.65"
       style="fill:#f78f5d;fill-opacity:1;fill-rule:nonzero;stroke:none"
       id="path48" />
    <path
       d="m 1504.59,1396.12 c -52.43,-63.1 -136.22,-93.74 -218.14,-97.96 -68.43,-3.5 -136.37,9.55 -202.33,26.67 -12.17,3.15 -29.24,11.93 -41.6,11.79 -13.83,-0.2 -31.29,-11.35 -44.188,-16.3 -31.035,-11.89 -62.512,-22.79 -94.664,-31.28 -35.016,-9.21 -70.855,-15.66 -107.078,-17.36 -65.91,-3.06 -134.875,11.49 -189.192,47.48 44.719,-1.31 89.332,0.58 133.657,7.52 115.957,18.18 231.336,76.47 290.255,177.97 65.91,-6.44 132.69,-11.97 198.16,-1.88 65.47,10.08 130.41,37.29 174.25,86.9 27.45,31.04 45.15,71.44 47.96,112.81 0.68,10.13 -2.62,23.13 -4.22,35.01 48.98,-30.26 86.57,-79.09 101.84,-134.72 19.35,-70.66 2.14,-150.29 -44.71,-206.65"
       style="fill:#f78f5d;fill-opacity:1;fill-rule:nonzero;stroke:none"
       id="path50" />
    <path
       d="m 1176.86,1651.5 -2.27,0.86 c -1.04,-0.32 -1.62,-1.42 -1.3,-2.45 7.26,-23.86 7.73,-48.85 1.78,-71.51 -2.86,-11.33 -7.31,-22.03 -13.22,-31.72 -5.71,-9.8 -12.81,-18.7 -20.94,-26.32 -2,-1.94 -4.18,-3.67 -6.29,-5.46 -2.23,-1.65 -4.45,-3.3 -6.78,-4.76 -4.62,-2.98 -9.42,-5.59 -14.35,-7.76 -4.81,-2.32 -9.72,-4.31 -14.7,-6.4 -4.95,-2.1 -9.99,-4.19 -15.19,-6.24 -6.74,-2.74 -13.82,-5.31 -21.12,-7.87 l -1.6,40.56 -1.81,64.28 -0.33,64.39 c -0.09,85.98 3.91,172.14 10.06,258.59 0.17,2.32 -1.35,4.51 -3.68,5.1 -2.62,0.67 -5.28,-0.93 -5.95,-3.54 -16.08,-63.27 -28.94,-127.42 -39.41,-192.09 l -2.41,2.41 c -4.08,4.01 -8.45,7.08 -13.36,9.63 -4.892,2.55 -9.927,5.19 -13.99,8.89 -4.043,3.52 -7.785,7.55 -11.094,12 -3.476,4.35 -6.531,9.16 -8.996,14.31 -5.152,10.26 -7.984,22.02 -7.203,34.75 v 0.03 l -0.973,1.83 c -0.953,0.58 -2.183,0.27 -2.75,-0.68 -7.011,-11.71 -9.324,-26.5 -7.941,-40.89 0.781,-7.2 2.43,-14.36 4.852,-21.34 2.597,-6.89 5.953,-13.56 10.046,-19.89 4.075,-6.15 8.102,-12.58 12.914,-18.34 4.79,-5.77 10.758,-10.25 17.426,-13.14 5.739,-2.51 11.789,-4.14 18.009,-4.95 -1.45,-9.78 -2.86,-19.55 -4.21,-29.34 l -7.76,-65.13 -6.293,-65.38 -4.074,-65.59 -2.586,-65.74 c -0.258,-21.93 -1.074,-43.9 -1.976,-65.91 l -1.387,-66.09 c 0.238,-22.02 1.004,-44.04 2.664,-65.98 2.125,-21.91 5.109,-43.73 8.719,-65.45 l 6.543,-32.44 c 2.43,-10.77 4.66,-21.55 7.25,-32.27 5.59,-21.39 11.53,-42.68 18.16,-63.78 7.12,-21.032 14.69,-41.899 23.07,-62.52 8.96,-20.512 18.32,-40.851 29.58,-60.629 0.77,-1.34 2.15,-2.34 3.79,-2.551 2.81,-0.371 5.38,1.602 5.75,4.411 l 0.01,0.109 c 2.98,22.66 4.06,44.762 4.73,66.699 1.07,22 1.33,43.75 1.15,65.351 0.3,21.68 -0.1,43.16 -0.84,64.56 -0.09,10.73 -0.53,21.41 -0.78,32.09 l -1.49,31.94 c -0.77,21.3 -2.17,42.5 -4.42,63.62 -1.74,21.16 -4.37,42.25 -7.54,63.35 l -8.65,63.44 c -2.35,21.21 -4.61,42.46 -6.31,63.76 l -3.45,55.36 c 10.05,-0.26 20.26,0.49 30.49,2.58 13.77,2.71 27.4,8.48 39.17,17.15 11.69,8.65 21.68,19.04 30.45,30 8.8,10.98 15.92,23.14 21.16,35.98 5.09,12.92 8.12,26.52 9.14,40.02 1.82,27.03 -4.24,53.97 -17.49,76.1"
       style="fill:#d14633;fill-opacity:1;fill-rule:nonzero;stroke:none"
       id="path52" />
    <path
       d="m 792.613,1914.94 c -24.613,0 -44.574,25.9 -44.574,57.85 0,31.95 19.961,57.86 44.574,57.86 24.621,0 44.575,-25.91 44.575,-57.86 0,-31.95 -19.954,-57.85 -44.575,-57.85"
       style="fill:#f9ac76;fill-opacity:1;fill-rule:nonzero;stroke:none"
       id="path54" />
    <path
       d="m 906.531,2163.48 c -16.16,0 -29.258,17 -29.258,37.97 0,20.97 13.098,37.97 29.258,37.97 16.157,0 29.254,-17 29.254,-37.97 0,-20.97 -13.097,-37.97 -29.254,-37.97"
       style="fill:#f9ac76;fill-opacity:1;fill-rule:nonzero;stroke:none"
       id="path56" />
    <path
       d="m 969.27,2085.06 c -8.747,0 -15.832,9.19 -15.832,20.54 0,11.34 7.085,20.54 15.832,20.54 8.742,0 15.824,-9.2 15.824,-20.54 0,-11.35 -7.082,-20.54 -15.824,-20.54"
       style="fill:#f9ac76;fill-opacity:1;fill-rule:nonzero;stroke:none"
       id="path58" />
    <path
       d="m 729.676,1852.27 c -8.742,0 -15.832,9.2 -15.832,20.55 0,11.34 7.09,20.54 15.832,20.54 8.738,0 15.824,-9.2 15.824,-20.54 0,-11.35 -7.086,-20.55 -15.824,-20.55"
       style="fill:#f9ac76;fill-opacity:1;fill-rule:nonzero;stroke:none"
       id="path60" />
    <path
       d="m 759.598,2115.03 c -4.731,0 -8.567,4.98 -8.567,11.11 0,6.14 3.836,11.11 8.567,11.11 4.722,0 8.558,-4.97 8.558,-11.11 0,-6.13 -3.836,-11.11 -8.558,-11.11"
       style="fill:#f9ac76;fill-opacity:1;fill-rule:nonzero;stroke:none"
       id="path62" />
    <path
       d="m 973.531,2201.45 c -9.734,0 -17.633,10.25 -17.633,22.88 0,12.64 7.899,22.88 17.633,22.88 9.739,0 17.633,-10.24 17.633,-22.88 0,-12.63 -7.894,-22.88 -17.633,-22.88"
       style="fill:#f9ac76;fill-opacity:1;fill-rule:nonzero;stroke:none"
       id="path64" />
    <path
       d="m 1149.06,3354.24 h 2558.96 v 553.273 H 1149.06 Z"
       style="fill:#64ab91;fill-opacity:1;fill-rule:nonzero;stroke:none"
       id="path66" />
    <path
       d="m 1149.06,3861.63 h 2558.96 v 45.8828 H 1149.06 Z"
       style="fill:#266c55;fill-opacity:1;fill-rule:nonzero;stroke:none"
       id="path68" />
    <path
       d="m 1167.48,3965.1 h 2522.14 v 129.75 H 1167.48 Z"
       style="fill:#64ab91;fill-opacity:1;fill-rule:nonzero;stroke:none"
       id="path70" />
    <path
       d="m 1167.48,4070.48 h 2522.14 v 24.375 H 1167.48 Z"
       style="fill:#266c55;fill-opacity:1;fill-rule:nonzero;stroke:none"
       id="path72" />
    <path
       d="M 3739.08,3991.62 H 1118.01 c -7.52,0 -13.62,-6.1 -13.62,-13.62 v -75.98 c 0,-7.53 6.1,-13.62 13.62,-13.62 h 2621.07 c 7.52,0 13.61,6.09 13.61,13.62 V 3978 c 0,7.52 -6.09,13.62 -13.61,13.62"
       style="fill:#f78f5d;fill-opacity:1;fill-rule:nonzero;stroke:none"
       id="path74" />
    <path
       d="M 3740.17,4195.89 H 1116.92 c -6.92,0 -12.53,-5.61 -12.53,-12.53 v -78.17 c 0,-6.92 5.61,-12.53 12.53,-12.53 h 2623.25 c 6.92,0 12.52,5.61 12.52,12.53 v 78.17 c 0,6.92 -5.6,12.53 -12.52,12.53"
       style="fill:#f78f5d;fill-opacity:1;fill-rule:nonzero;stroke:none"
       id="path76" />
    <path
       d="m 1197.1,836.691 h 2510.94 v 1817.9 H 1197.1 Z"
       style="fill:#64ab91;fill-opacity:1;fill-rule:nonzero;stroke:none"
       id="path78" />
    <path
       d="M 3725.71,836.691 H 1179.43 c -8.11,0 -14.67,6.559 -14.67,14.661 v 243.528 c 0,8.11 6.56,14.67 14.67,14.67 h 2546.28 c 8.11,0 14.67,-6.56 14.67,-14.67 V 851.352 c 0,-8.102 -6.56,-14.661 -14.67,-14.661"
       style="fill:#f78f5d;fill-opacity:1;fill-rule:nonzero;stroke:none"
       id="path80" />
    <path
       d="m 3708.04,2419.42 h -6.51 c -49.94,0 -91.83,34.41 -103.27,80.88 4.76,-0.7 9.62,-1.05 14.57,-1.05 h 35.05 c 22.57,0 43.41,7.46 60.16,20.05 v -99.88 m -219.22,0 h -28.75 c -50.32,0 -92.48,34.95 -103.53,81.97 6.69,-1.41 13.62,-2.14 20.73,-2.14 h 35.05 c 55.37,0 100.26,44.88 100.26,100.25 v 55.09 -55.09 c 0,-48.35 34.21,-88.7 79.76,-98.16 -11.07,-46.99 -53.22,-81.92 -103.52,-81.92 m -241.46,0 h -28.75 c -50.87,0 -93.49,35.73 -103.99,83.53 8.62,-2.41 17.71,-3.7 27.1,-3.7 h 35.04 c 55.37,0 100.26,44.88 100.26,100.25 v 55.09 -55.09 c 0,-46.35 31.44,-85.35 74.16,-96.83 -10.57,-47.66 -53.04,-83.25 -103.82,-83.25 m -241.57,0 h -28.75 c -51.58,0 -94.59,36.72 -104.3,85.53 10.45,-3.69 21.7,-5.7 33.42,-5.7 h 35.05 c 55.37,0 100.25,44.88 100.25,100.25 v 55.09 -55.09 c 0,-44.28 28.7,-81.85 68.51,-95.13 -9.93,-48.51 -52.8,-84.95 -104.18,-84.95 m -241.46,0 h -28.75 c -52.46,0 -96.05,37.99 -104.77,88.03 12.2,-5.28 25.65,-8.2 39.79,-8.2 h 35.05 c 55.37,0 100.25,44.88 100.25,100.25 v 55.09 -55.09 c 0,-42.21 26.09,-78.32 63.01,-93.11 -9.14,-49.52 -52.49,-86.97 -104.58,-86.97 m -241.45,0 h -28.76 c -53.51,0 -97.8,39.53 -105.25,91.07 13.82,-7.18 29.53,-11.24 46.18,-11.24 h 35.04 c 55.38,0 100.26,44.88 100.26,100.25 v 55.09 -55.09 c 0,-40.09 23.52,-74.67 57.51,-90.71 -8.17,-50.71 -52.06,-89.37 -104.98,-89.37 m -241.46,0 h -28.75 c -54.79,0 -100,41.42 -105.84,94.75 15.31,-9.46 33.35,-14.92 52.66,-14.92 h 35.05 c 55.36,0 100.25,44.88 100.25,100.25 v 55.09 -55.09 c 0,-37.89 21.02,-70.87 52.03,-87.91 -6.97,-52.08 -51.51,-92.17 -105.4,-92.17 m -241.57,0 h -28.75 c -56.22,0 -102.26,43.63 -106.1,98.97 16.54,-12.04 36.91,-19.14 58.93,-19.14 h 35.05 c 55.37,0 100.25,44.88 100.25,100.25 v 55.09 -55.09 c 0,-35.55 18.51,-66.78 46.41,-84.58 -5.48,-53.69 -50.76,-95.5 -105.79,-95.5 m -241.46,0 h -28.75 c -57.85,0 -104.91,46.19 -106.32,103.8 17.51,-14.95 40.23,-23.97 65.06,-23.97 h 35.04 c 55.38,0 100.26,44.88 100.26,100.25 v 55.09 -55.09 c 0,-33.12 16.06,-62.49 40.82,-80.75 -3.66,-55.51 -49.77,-99.33 -106.11,-99.33 m -241.46,0 h -28.76 c -58.73,0 -106.35,47.62 -106.35,106.47 0,-58.85 -47.61,-106.47 -106.35,-106.47 h -28.75 c -37.62,0 -70.76,19.54 -89.62,49.19 v 50.69 c 16.75,-12.59 37.59,-20.05 60.16,-20.05 h 35.05 c 55.37,0 100.25,44.88 100.25,100.25 v 55.09 -55.09 c 0,-55.37 44.89,-100.25 100.26,-100.25 h 35.05 c 55.36,0 100.25,44.88 100.25,100.25 v 55.09 -55.09 c 0,-30.51 13.63,-57.84 35.13,-76.23 -1.38,-57.63 -48.46,-103.85 -106.32,-103.85"
       style="fill:#266c55;fill-opacity:1;fill-rule:nonzero;stroke:none"
       id="path82" />
    <path
       d="m 1324.71,1008 h 630.828 V 2298.32 H 1324.71 Z"
       style="fill:#f68554;fill-opacity:1;fill-rule:nonzero;stroke:none"
       id="path84" />
    <path
       d="m 1359.11,1042.36 h 561.992 V 2263.92 H 1359.11 Z"
       style="fill:#ecf2bf;fill-opacity:1;fill-rule:nonzero;stroke:none"
       id="path86" />
    <path
       d="m 1359.11,1233.28 v 214.29 l 113.47,408.72 -0.06,-4.08 c -0.04,-2.49 1.95,-4.54 4.44,-4.58 l 52.51,-0.77 -170.36,-613.58 m 206,741.92 -28.71,0.42 38.53,34.96 -9.82,-35.38 m -42.53,0.63 -16.74,0.24 79.91,287.85 h 59.52 l -65.61,-236.31 -57.08,-51.78"
       style="fill:#f7f9df;fill-opacity:1;fill-rule:nonzero;stroke:none"
       id="path88" />
    <path
       d="m 1661.22,1042.36 h -35.83 l 295.71,1064.89 v -128.92 l -259.88,-935.97"
       style="fill:#f7f9df;fill-opacity:1;fill-rule:nonzero;stroke:none"
       id="path90" />
    <path
       d="M 1595.74,1042.36 H 1476.7 l 222.67,801.99 83.61,-1.23 c 0.03,0 0.05,0 0.08,0 2.45,0 4.47,1.98 4.5,4.45 l 1.77,119.81 c 0.04,2.49 -1.95,4.54 -4.45,4.58 l -43.95,0.64 -4.69,4.53 79.63,286.79 h 105.23 v -49.53 L 1595.74,1042.36"
       style="fill:#f7f9df;fill-opacity:1;fill-rule:nonzero;stroke:none"
       id="path92" />
    <path
       d="m 1921.1,1640.73 h -87 c -6.85,0 -12.41,5.56 -12.41,12.41 0,6.86 5.56,12.4 12.41,12.4 h 87 v -24.81"
       style="fill:#f68554;fill-opacity:1;fill-rule:nonzero;stroke:none"
       id="path94" />
    <path
       d="m 2049.24,1461.04 h 1531.19 v 837.281 H 2049.24 Z"
       style="fill:#f68554;fill-opacity:1;fill-rule:nonzero;stroke:none"
       id="path96" />
    <path
       d="m 2089.44,1495.45 h 1450.88 v 768.512 H 2089.44 Z"
       style="fill:#ecf2bf;fill-opacity:1;fill-rule:nonzero;stroke:none"
       id="path98" />
    <path
       d="m 2513.6,1911.73 h -60.31 l 22.99,87.59 c 20.93,-8.62 38.52,-20.63 51.14,-34.93 l -13.82,-52.66 m -92.93,0 h -170.88 c 0,55.16 63.96,100.09 143.95,102.1 v 250.13 h 11.09 v -250.13 c 14.38,-0.36 28.25,-2.11 41.32,-5.06 l -25.48,-97.04"
       style="fill:#dde592;fill-opacity:1;fill-rule:nonzero;stroke:none"
       id="path100" />
    <path
       d="m 3379.88,1911.73 h -20.84 c -13.29,9.75 -31.02,15.51 -35.2,31.04 -3.14,11.69 3.04,25.44 -3.48,35.64 -5.74,8.98 -18.78,10.66 -25.22,19.16 -1.71,2.27 -2.8,4.74 -3.46,7.37 52,-16 88.2,-51.71 88.2,-93.21 m -145.23,172.89 c -2.37,5.96 -5.72,11.49 -9.81,16.43 v 162.91 h 11.09 v -179.21 c -0.42,-0.04 -0.85,-0.08 -1.28,-0.13"
       style="fill:#dde592;fill-opacity:1;fill-rule:nonzero;stroke:none"
       id="path102" />
    <path
       d="m 2550.64,1804.52 h -65.18 l 28.14,107.21 h 35.18 c 0,19.26 -7.8,37.28 -21.36,52.66 l 78.62,299.57 h 65.25 l -120.65,-459.44"
       style="fill:#f7f9df;fill-opacity:1;fill-rule:nonzero;stroke:none"
       id="path104" />
    <path
       d="m 2548.78,1911.73 h -35.18 l 13.82,52.66 c 13.56,-15.38 21.36,-33.4 21.36,-52.66"
       style="fill:#eef3c6;fill-opacity:1;fill-rule:nonzero;stroke:none"
       id="path106" />
    <path
       d="m 3089.19,1755.16 v 93.93 h -40.67 l 108.95,414.87 h 65.25 l -36.63,-139.58 c -4.06,0.83 -8.2,1.27 -12.34,1.27 -2.84,0 -5.68,-0.2 -8.5,-0.62 -30.24,-4.5 -54.95,-33.2 -54.89,-63.77 0.03,-16.48 6.14,-34.12 -1.52,-48.71 -5.56,-10.61 -17.96,-18.39 -17.96,-30.37 0,-7.57 4.92,-13.37 10.15,-19.21 -12.8,-15.06 -20.14,-32.57 -20.14,-51.24 h 26.67 c -2.32,-7.94 -3.97,-15.88 -1.92,-23.6 2.02,-7.56 7.29,-13.57 13.61,-18.39 l -30.06,-114.58"
       style="fill:#f7f9df;fill-opacity:1;fill-rule:nonzero;stroke:none"
       id="path108" />
    <path
       d="m 3107.56,1911.73 h -26.67 c 0,18.67 7.34,36.18 20.14,51.24 4.15,-4.63 8.51,-9.28 10.75,-14.85 4.67,-11.58 -0.6,-23.99 -4.22,-36.39"
       style="fill:#eef3c6;fill-opacity:1;fill-rule:nonzero;stroke:none"
       id="path110" />
    <path
       d="m 2425.15,1804.52 h -32.63 l 28.15,107.21 h 32.62 l -28.14,-107.21 m 51.13,194.8 c -9.42,3.87 -19.51,7.06 -30.13,9.45 l 67.02,255.19 h 32.57 l -69.46,-264.64"
       style="fill:#f7f9df;fill-opacity:1;fill-rule:nonzero;stroke:none"
       id="path112" />
    <path
       d="m 2453.29,1911.73 h -32.62 l 25.48,97.04 c 10.62,-2.39 20.71,-5.58 30.13,-9.45 l -22.99,-87.59"
       style="fill:#eef3c6;fill-opacity:1;fill-rule:nonzero;stroke:none"
       id="path114" />
    <path
       d="m 2827.37,1609.39 h -82.82 l 171.79,654.57 h 157.12 l -108.88,-414.87 h -38.44 l -98.77,-239.7"
       style="fill:#f7f9df;fill-opacity:1;fill-rule:nonzero;stroke:none"
       id="path116" />
    <path
       d="m 3540.32,1495.45 h -209.28 c -10.1,55.4 -27.08,127.18 -27.08,127.18 l -1.81,62.64 h 110.61 v -74.68 h 127.56 v -115.14 m -433.27,0 h -86.03 l 68.17,259.71 v -167.45 h 33.52 l -15.66,-92.26 m -151.4,0 h -83.89 l 92.82,353.64 h 83.94 l -92.87,-353.64 m -241.01,0 h -245.16 l 81.16,309.07 h 34.63 v -195.13 h 159.28 l -29.91,-113.94 m -310.3,0 h -60.31 l 81.12,309.07 h 60.31 l -81.12,-309.07 m -92.99,0 h -113.93 l 146.95,309.07 h 48.15 l -81.17,-309.07"
       style="fill:#dde592;fill-opacity:1;fill-rule:nonzero;stroke:none"
       id="path118" />
    <path
       d="m 2469.48,1495.45 h -65.14 l 81.12,309.07 h 65.18 l -81.16,-309.07"
       style="fill:#e5eba8;fill-opacity:1;fill-rule:nonzero;stroke:none"
       id="path120" />
    <path
       d="m 3021.02,1495.45 h -65.37 l 92.87,353.64 h 40.67 v -93.93 l -68.17,-259.71"
       style="fill:#e5eba8;fill-opacity:1;fill-rule:nonzero;stroke:none"
       id="path122" />
    <path
       d="m 2344.03,1495.45 h -32.68 l 81.17,309.07 h 32.63 l -81.12,-309.07"
       style="fill:#e5eba8;fill-opacity:1;fill-rule:nonzero;stroke:none"
       id="path124" />
    <path
       d="m 2871.76,1495.45 h -157.12 l 29.91,113.94 h 82.82 l 98.77,239.7 h 38.44 l -92.82,-353.64"
       style="fill:#e5eba8;fill-opacity:1;fill-rule:nonzero;stroke:none"
       id="path126" />
    <path
       d="M 2053.05,836.672 H 1227.2 v 89.609 h 825.85 v -89.609"
       style="fill:#d14633;fill-opacity:1;fill-rule:nonzero;stroke:none"
       id="path128" />
    <path
       d="m 2053.03,926.281 h -825.85 l 36.62,21.5 h 752.61 l 36.62,-21.5"
       style="fill:#ed5e4c;fill-opacity:1;fill-rule:nonzero;stroke:none"
       id="path130" />
    <path
       d="m 1992.59,947.781 h -704.96 v 50.668 h 704.96 v -50.668"
       style="fill:#d14633;fill-opacity:1;fill-rule:nonzero;stroke:none"
       id="path132" />
    <path
       d="m 1992.57,998.449 h -704.95 l 31.25,12.171 h 642.45 l 31.25,-12.171"
       style="fill:#ed5e4c;fill-opacity:1;fill-rule:nonzero;stroke:none"
       id="path134" />
    <path
       d="M 1157.01,2697.76 H 921.453 l 117.777,631.26 h 217.44 l -99.66,-631.26"
       style="fill:#ecf2bf;fill-opacity:1;fill-rule:nonzero;stroke:none"
       id="path136" />
    <path
       d="m 1392.56,2697.76 h -235.55 l 99.66,631.26 h 217.43 l -81.54,-631.26"
       style="fill:#ed5e4c;fill-opacity:1;fill-rule:nonzero;stroke:none"
       id="path138" />
    <path
       d="m 1628.12,2697.76 h -235.56 l 81.54,631.26 h 217.44 l -63.42,-631.26"
       style="fill:#ecf2bf;fill-opacity:1;fill-rule:nonzero;stroke:none"
       id="path140" />
    <path
       d="m 1863.68,2697.76 h -235.56 l 63.42,631.26 h 217.44 l -45.3,-631.26"
       style="fill:#ed5e4c;fill-opacity:1;fill-rule:nonzero;stroke:none"
       id="path142" />
    <path
       d="m 2099.23,2697.76 h -235.55 l 45.3,631.26 h 217.44 l -27.19,-631.26"
       style="fill:#ecf2bf;fill-opacity:1;fill-rule:nonzero;stroke:none"
       id="path144" />
    <path
       d="m 2334.79,2697.76 h -235.56 l 27.19,631.26 h 217.43 l -9.06,-631.26"
       style="fill:#ed5e4c;fill-opacity:1;fill-rule:nonzero;stroke:none"
       id="path146" />
    <path
       d="m 2570.35,2697.76 h -235.56 l 9.06,631.26 h 217.44 l 9.06,-631.26"
       style="fill:#ecf2bf;fill-opacity:1;fill-rule:nonzero;stroke:none"
       id="path148" />
    <path
       d="m 2805.9,2697.76 h -235.55 l -9.06,631.26 h 217.44 l 27.17,-631.26"
       style="fill:#ed5e4c;fill-opacity:1;fill-rule:nonzero;stroke:none"
       id="path150" />
    <path
       d="M 3041.46,2697.76 H 2805.9 l -27.17,631.26 h 217.43 l 45.3,-631.26"
       style="fill:#ecf2bf;fill-opacity:1;fill-rule:nonzero;stroke:none"
       id="path152" />
    <path
       d="m 3277.02,2697.76 h -235.56 l -45.3,631.26 h 217.44 l 63.42,-631.26"
       style="fill:#ed5e4c;fill-opacity:1;fill-rule:nonzero;stroke:none"
       id="path154" />
    <path
       d="m 3512.58,2697.76 h -235.56 l -63.42,631.26 h 217.43 l 81.55,-631.26"
       style="fill:#ecf2bf;fill-opacity:1;fill-rule:nonzero;stroke:none"
       id="path156" />
    <path
       d="m 3748.13,2697.76 h -235.55 l -81.55,631.26 h 217.44 l 99.66,-631.26"
       style="fill:#ed5e4c;fill-opacity:1;fill-rule:nonzero;stroke:none"
       id="path158" />
    <path
       d="m 3983.69,2697.76 h -235.56 l -99.66,631.26 h 217.44 l 117.78,-631.26"
       style="fill:#ecf2bf;fill-opacity:1;fill-rule:nonzero;stroke:none"
       id="path160" />
    <path
       d="m 1056.75,2499.25 h -35.04 c -55.37,0 -100.257,44.88 -100.257,100.25 v 98.26 h 235.557 v -98.26 c 0,-55.37 -44.88,-100.25 -100.26,-100.25"
       style="fill:#e2d77b;fill-opacity:1;fill-rule:nonzero;stroke:none"
       id="path162" />
    <path
       d="m 1292.31,2499.25 h -35.05 c -55.36,0 -100.25,44.88 -100.25,100.25 v 98.26 h 235.55 v -98.26 c 0,-55.37 -44.88,-100.25 -100.25,-100.25"
       style="fill:#d14633;fill-opacity:1;fill-rule:nonzero;stroke:none"
       id="path164" />
    <path
       d="m 1527.87,2499.25 h -35.05 c -55.37,0 -100.26,44.88 -100.26,100.25 v 98.26 h 235.56 v -98.26 c 0,-55.37 -44.89,-100.25 -100.25,-100.25"
       style="fill:#e2d77b;fill-opacity:1;fill-rule:nonzero;stroke:none"
       id="path166" />
    <path
       d="m 1763.42,2499.25 h -35.04 c -55.37,0 -100.26,44.88 -100.26,100.25 v 98.26 h 235.56 v -98.26 c 0,-55.37 -44.88,-100.25 -100.26,-100.25"
       style="fill:#d14633;fill-opacity:1;fill-rule:nonzero;stroke:none"
       id="path168" />
    <path
       d="m 1998.98,2499.25 h -35.05 c -55.36,0 -100.25,44.88 -100.25,100.25 v 98.26 h 235.55 v -98.26 c 0,-55.37 -44.88,-100.25 -100.25,-100.25"
       style="fill:#e2d77b;fill-opacity:1;fill-rule:nonzero;stroke:none"
       id="path170" />
    <path
       d="m 2234.54,2499.25 h -35.05 c -55.37,0 -100.26,44.88 -100.26,100.25 v 98.26 h 235.56 v -98.26 c 0,-55.37 -44.89,-100.25 -100.25,-100.25"
       style="fill:#d14633;fill-opacity:1;fill-rule:nonzero;stroke:none"
       id="path172" />
    <path
       d="m 2470.09,2499.25 h -35.04 c -55.37,0 -100.26,44.88 -100.26,100.25 v 98.26 h 235.56 v -98.26 c 0,-55.37 -44.88,-100.25 -100.26,-100.25"
       style="fill:#e2d77b;fill-opacity:1;fill-rule:nonzero;stroke:none"
       id="path174" />
    <path
       d="m 2705.65,2499.25 h -35.05 c -55.37,0 -100.25,44.88 -100.25,100.25 v 98.26 h 235.55 v -98.26 c 0,-55.37 -44.88,-100.25 -100.25,-100.25"
       style="fill:#d14633;fill-opacity:1;fill-rule:nonzero;stroke:none"
       id="path176" />
    <path
       d="m 2941.21,2499.25 h -35.05 c -55.37,0 -100.26,44.88 -100.26,100.25 v 98.26 h 235.56 v -98.26 c 0,-55.37 -44.88,-100.25 -100.25,-100.25"
       style="fill:#e2d77b;fill-opacity:1;fill-rule:nonzero;stroke:none"
       id="path178" />
    <path
       d="m 3176.76,2499.25 h -35.04 c -55.38,0 -100.26,44.88 -100.26,100.25 v 98.26 h 235.56 v -98.26 c 0,-55.37 -44.89,-100.25 -100.26,-100.25"
       style="fill:#d14633;fill-opacity:1;fill-rule:nonzero;stroke:none"
       id="path180" />
    <path
       d="m 3412.32,2499.25 h -35.05 c -55.37,0 -100.25,44.88 -100.25,100.25 v 98.26 h 235.56 v -98.26 c 0,-55.37 -44.89,-100.25 -100.26,-100.25"
       style="fill:#e2d77b;fill-opacity:1;fill-rule:nonzero;stroke:none"
       id="path182" />
    <path
       d="m 3883.43,2499.25 h -35.05 c -55.37,0 -100.25,44.88 -100.25,100.25 v 98.26 h 235.56 v -98.26 c 0,-55.37 -44.89,-100.25 -100.26,-100.25"
       style="fill:#e2d77b;fill-opacity:1;fill-rule:nonzero;stroke:none"
       id="path184" />
    <path
       d="m 3647.88,2499.25 h -35.05 c -55.37,0 -100.25,44.88 -100.25,100.25 v 98.26 h 235.55 v -98.26 c 0,-55.37 -44.88,-100.25 -100.25,-100.25"
       style="fill:#d14633;fill-opacity:1;fill-rule:nonzero;stroke:none"
       id="path186" />
    <path
       d="m 3983.72,2697.79 v 0 l -53.97,289.05 53.97,-289.05 m -3062.298,0 v 0 l 1.48,7.74 -1.445,-7.74"
       style="fill:#edcc94;fill-opacity:1;fill-rule:nonzero;stroke:none"
       id="path188" />
    <path
       d="M 1157.01,2697.79 H 921.422 l 1.48,7.74 0.215,1.13 c 78.653,1.21 157.313,2.61 236.003,4.5 l -2.11,-13.37"
       style="fill:#dde592;fill-opacity:1;fill-rule:nonzero;stroke:none"
       id="path190" />
    <path
       d="m 1392.57,2697.79 h -235.56 l 2.11,13.37 c 78.72,1.89 157.49,4.28 236.14,7.46 l -2.69,-20.83"
       style="fill:#dc5b3e;fill-opacity:1;fill-rule:nonzero;stroke:none"
       id="path192" />
    <path
       d="m 1628.12,2697.79 h -235.55 l 2.69,20.83 c 78.83,3.19 157.55,7.18 236.19,12.28 l -3.33,-33.11"
       style="fill:#dde592;fill-opacity:1;fill-rule:nonzero;stroke:none"
       id="path194" />
    <path
       d="m 1863.68,2697.79 h -235.56 l 3.33,33.11 c 78.79,5.11 157.49,11.33 235.97,18.98 l -3.74,-52.09"
       style="fill:#dc5b3e;fill-opacity:1;fill-rule:nonzero;stroke:none"
       id="path196" />
    <path
       d="m 2099.24,2697.79 h -235.56 l 3.74,52.09 c 78.63,7.65 157.04,16.73 235.25,27.56 l -3.43,-79.65"
       style="fill:#dde592;fill-opacity:1;fill-rule:nonzero;stroke:none"
       id="path198" />
    <path
       d="m 2334.79,2697.79 h -235.55 l 3.43,79.65 c 78.2,10.82 156.14,23.38 233.81,37.98 l -1.69,-117.63"
       style="fill:#dc5b3e;fill-opacity:1;fill-rule:nonzero;stroke:none"
       id="path200" />
    <path
       d="m 2570.35,2697.79 h -235.56 l 1.69,117.63 c 22.04,4.15 44.1,8.47 66.09,12.95 55.37,11.29 110.52,23.71 165.37,37.33 l 2.41,-167.91"
       style="fill:#dde592;fill-opacity:1;fill-rule:nonzero;stroke:none"
       id="path202" />
    <path
       d="m 2805.9,2697.79 h -235.55 l -2.41,167.91 c 76.64,19.04 152.72,40.42 227.96,64.33 l 10,-232.24"
       style="fill:#dc5b3e;fill-opacity:1;fill-rule:nonzero;stroke:none"
       id="path204" />
    <path
       d="M 3041.46,2697.79 H 2805.9 l -10,232.24 c 38.35,12.19 76.47,25.03 114.37,38.55 36.48,13.03 72.78,26.72 108.81,41.06 l 22.38,-311.85"
       style="fill:#dde592;fill-opacity:1;fill-rule:nonzero;stroke:none"
       id="path206" />
    <path
       d="m 3277.01,2697.79 h -235.55 l -22.38,311.85 c 73.49,29.25 145.95,61.28 216.94,96.23 l 40.99,-408.08"
       style="fill:#dc5b3e;fill-opacity:1;fill-rule:nonzero;stroke:none"
       id="path208" />
    <path
       d="m 3512.57,2697.79 h -235.56 l -40.99,408.08 c 71.31,35.12 141.15,73.19 209.06,114.39 l 67.49,-522.47"
       style="fill:#dde592;fill-opacity:1;fill-rule:nonzero;stroke:none"
       id="path210" />
    <path
       d="m 3748.13,2697.79 h -235.56 l -67.49,522.47 c 56.18,34.08 111.03,70.29 164.34,108.75 h 39.05 l 99.66,-631.22"
       style="fill:#dc5b3e;fill-opacity:1;fill-rule:nonzero;stroke:none"
       id="path212" />
    <path
       d="m 3983.72,2697.79 h -235.59 l -99.66,631.23 217.41,-0.01 63.87,-342.17 53.93,-289.05"
       style="fill:#dde592;fill-opacity:1;fill-rule:nonzero;stroke:none"
       id="path214" />
    <path
       d="M 3866.91,3318.06 H 1038.23 c -14.29,0 -25.88,11.59 -25.88,25.87 0,14.29 11.59,25.88 25.88,25.88 h 2828.68 c 14.29,0 25.88,-11.59 25.88,-25.88 0,-14.28 -11.59,-25.87 -25.88,-25.87"
       style="fill:#ed5e4c;fill-opacity:1;fill-rule:nonzero;stroke:none"
       id="path216" />
    <path
       d="m 1247.87,3464.19 h 2389.72 v 333.367 H 1247.87 Z"
       style="fill:#f68554;fill-opacity:1;fill-rule:nonzero;stroke:none"
       id="path218" />
    <path
       d="M 1282.32,3494.69 H 3603.2 v 272.391 H 1282.32 Z"
       style="fill:#ecf2bf;fill-opacity:1;fill-rule:nonzero;stroke:none"
       id="path220" />
    <path
       d="m 3603.2,3494.69 h -19.68 v 252.72 h -640.9 l 9.92,19.67 h -49.06 l -9.93,-19.67 h -346.56 l 9.93,19.67 h -38.4 l -9.93,-19.67 h -39.07 l 9.94,19.67 h -106.71 l -9.93,-19.67 h -272.96 l 9.93,19.67 h -59.35 l -9.93,-19.67 h -748.19 v 19.67 H 3603.2 v -272.39"
       style="fill:#dde592;fill-opacity:1;fill-rule:nonzero;stroke:none"
       id="path222" />
    <path
       d="m 1962.32,3494.69 h -59.45 l 127.64,252.72 h 59.35 l -127.54,-252.72"
       style="fill:#f7f9df;fill-opacity:1;fill-rule:nonzero;stroke:none"
       id="path224" />
    <path
       d="m 2089.86,3747.41 h -59.35 l 9.93,19.67 h 59.35 l -9.93,-19.67"
       style="fill:#eef3c6;fill-opacity:1;fill-rule:nonzero;stroke:none"
       id="path226" />
    <path
       d="m 2341.9,3494.69 h -106.72 l 127.64,252.72 h 106.7 L 2341.9,3494.69"
       style="fill:#f7f9df;fill-opacity:1;fill-rule:nonzero;stroke:none"
       id="path228" />
    <path
       d="m 2469.52,3747.41 h -106.7 l 9.93,19.67 h 106.71 l -9.94,-19.67"
       style="fill:#eef3c6;fill-opacity:1;fill-rule:nonzero;stroke:none"
       id="path230" />
    <path
       d="m 2419.45,3494.69 h -38.49 l 127.63,252.72 h 38.4 l -127.54,-252.72"
       style="fill:#f7f9df;fill-opacity:1;fill-rule:nonzero;stroke:none"
       id="path232" />
    <path
       d="m 2546.99,3747.41 h -38.4 l 9.93,19.67 h 38.4 l -9.93,-19.67"
       style="fill:#eef3c6;fill-opacity:1;fill-rule:nonzero;stroke:none"
       id="path234" />
    <path
       d="m 2815.07,3494.69 h -49.16 l 127.64,252.72 h 49.07 l -127.55,-252.72"
       style="fill:#f7f9df;fill-opacity:1;fill-rule:nonzero;stroke:none"
       id="path236" />
    <path
       d="m 2942.62,3747.41 h -49.07 l 9.93,19.67 h 49.06 l -9.92,-19.67"
       style="fill:#eef3c6;fill-opacity:1;fill-rule:nonzero;stroke:none"
       id="path238" />
    <path
       d="m 3439.25,1265.71 h -111.8 l -8.19,72.27 h 119.99 v -72.27"
       style="fill:#266c55;fill-opacity:1;fill-rule:nonzero;stroke:none"
       id="path240" />
    <path
       d="m 2688.48,1347.61 h 205.57 v 72.2695 h -205.57 z"
       style="fill:#266c55;fill-opacity:1;fill-rule:nonzero;stroke:none"
       id="path242" />
    <path
       d="m 1197.1,1911.73 h 102.777 v 72.2578 H 1197.1 Z"
       style="fill:#266c55;fill-opacity:1;fill-rule:nonzero;stroke:none"
       id="path244" />
    <path
       d="m 1241.45,1485.73 h 83.2617 v 72.2695 H 1241.45 Z"
       style="fill:#266c55;fill-opacity:1;fill-rule:nonzero;stroke:none"
       id="path246" />
    <path
       d="m 3594.23,2329.68 h 113.809 v 72.2695 H 3594.23 Z"
       style="fill:#266c55;fill-opacity:1;fill-rule:nonzero;stroke:none"
       id="path248" />
    <path
       d="m 4067.69,1480.04 h -233.05 c -8.15,0 -14.76,6.61 -14.76,14.77 v 775.86 c 0,8.17 6.61,14.78 14.76,14.78 h 233.05 c 8.16,0 14.77,-6.61 14.77,-14.78 v -775.86 c 0,-8.16 -6.61,-14.77 -14.77,-14.77"
       style="fill:#64ab91;fill-opacity:1;fill-rule:nonzero;stroke:none"
       id="path250" />
    <path
       d="m 3835.74,1506.06 v 753.36 c 0,5.23 4.25,9.48 9.48,9.48 h 211.9 c 5.23,0 9.48,-4.25 9.48,-9.48 v -753.36 c 0,-5.23 -4.25,-9.48 -9.48,-9.48 h -211.9 c -5.23,0 -9.48,4.25 -9.48,9.48"
       style="fill:#7ccba9;fill-opacity:1;fill-rule:nonzero;stroke:none"
       id="path252" />
    <path
       d="m 4021.93,1516.03 c -2.64,0 -4.72,2.07 -4.72,4.72 0,2.54 2.08,4.72 4.72,4.72 2.55,0 4.72,-2.18 4.72,-4.72 0,-2.65 -2.17,-4.72 -4.72,-4.72 m -28.3,0 c -2.65,0 -4.72,2.07 -4.72,4.72 0,2.54 2.07,4.72 4.72,4.72 2.54,0 4.72,-2.18 4.72,-4.72 0,-2.65 -2.18,-4.72 -4.72,-4.72 m -28.31,0 c -2.64,0 -4.72,2.07 -4.72,4.72 0,2.54 2.08,4.72 4.72,4.72 2.55,0 4.72,-2.18 4.72,-4.72 0,-2.65 -2.17,-4.72 -4.72,-4.72 m -28.41,0 c -2.54,0 -4.72,2.07 -4.72,4.72 0,2.54 2.18,4.72 4.72,4.72 2.65,0 4.73,-2.18 4.73,-4.72 0,-2.65 -2.08,-4.72 -4.73,-4.72 m -28.3,0 c -2.54,0 -4.72,2.07 -4.72,4.72 0,2.54 2.18,4.72 4.72,4.72 2.65,0 4.72,-2.18 4.72,-4.72 0,-2.65 -2.07,-4.72 -4.72,-4.72 m -28.31,0 c -2.54,0 -4.72,2.07 -4.72,4.72 0,2.54 2.18,4.72 4.72,4.72 2.64,0 4.73,-2.18 4.73,-4.72 0,-2.65 -2.09,-4.72 -4.73,-4.72 m 165.6,7.92 h -0.29 c -2.55,0.09 -4.53,2.27 -4.43,4.91 0.09,2.53 2.17,4.45 4.65,4.45 0.12,0 0.23,0 0.35,-0.01 2.55,-0.1 4.53,-2.27 4.44,-4.91 -0.19,-2.55 -2.26,-4.44 -4.72,-4.44 m -189.27,0 h -0.19 c -2.56,0 -4.63,1.98 -4.71,4.53 v 0.47 0.1 c 0,2.55 2.07,4.72 4.71,4.72 2.54,0 4.72,-2.17 4.72,-4.72 v -0.1 -0.09 c 0.09,-2.54 -1.98,-4.71 -4.53,-4.91 m 189.27,28.31 c -2.55,0 -4.72,2.07 -4.72,4.72 0,2.55 2.17,4.62 4.72,4.62 2.63,0 4.72,-2.07 4.72,-4.62 0,-2.65 -2.09,-4.72 -4.72,-4.72 m -189.46,0.37 c -2.64,0 -4.71,2.18 -4.71,4.72 0,2.65 2.07,4.72 4.71,4.72 2.54,0 4.72,-2.07 4.72,-4.72 0,-2.54 -2.18,-4.72 -4.72,-4.72 m 189.46,27.93 c -2.55,0 -4.72,2.07 -4.72,4.72 0,2.55 2.17,4.72 4.72,4.72 2.63,0 4.72,-2.17 4.72,-4.72 0,-2.65 -2.09,-4.72 -4.72,-4.72 m -189.46,0.38 c -2.64,0 -4.71,2.17 -4.71,4.72 0,2.65 2.07,4.72 4.71,4.72 2.54,0 4.72,-2.07 4.72,-4.72 0,-2.55 -2.18,-4.72 -4.72,-4.72 m 189.46,27.93 c -2.55,0 -4.72,2.07 -4.72,4.72 0,2.64 2.17,4.72 4.72,4.72 2.63,0 4.72,-2.08 4.72,-4.72 0,-2.65 -2.09,-4.72 -4.72,-4.72 m -189.46,0.38 c -2.64,0 -4.71,2.17 -4.71,4.71 0,2.65 2.07,4.72 4.71,4.72 2.54,0 4.72,-2.07 4.72,-4.72 0,-2.54 -2.18,-4.71 -4.72,-4.71 m 189.46,27.92 c -2.55,0 -4.72,2.18 -4.72,4.72 0,2.65 2.17,4.72 4.72,4.72 2.63,0 4.72,-2.07 4.72,-4.72 0,-2.54 -2.09,-4.72 -4.72,-4.72 m -189.46,0.47 c -2.64,0 -4.71,2.08 -4.71,4.72 0,2.56 2.07,4.63 4.71,4.63 2.54,0 4.72,-2.07 4.72,-4.63 0,-2.64 -2.18,-4.72 -4.72,-4.72 m 189.46,27.84 c -2.55,0 -4.72,2.17 -4.72,4.72 0,2.64 2.17,4.72 4.72,4.72 2.63,0 4.72,-2.08 4.72,-4.72 0,-2.55 -2.09,-4.72 -4.72,-4.72 m -189.46,0.47 c -2.64,0 -4.71,2.08 -4.71,4.72 0,2.55 2.07,4.62 4.71,4.62 2.54,0 4.72,-2.07 4.72,-4.62 0,-2.64 -2.18,-4.72 -4.72,-4.72 m 189.46,27.84 c -2.55,0 -4.72,2.17 -4.72,4.71 0,2.65 2.17,4.72 4.72,4.72 2.63,0 4.72,-2.07 4.72,-4.72 0,-2.54 -2.09,-4.71 -4.72,-4.71 m -189.46,0.46 c -2.64,0 -4.71,2.08 -4.71,4.72 0,2.56 2.07,4.72 4.71,4.72 2.54,0 4.72,-2.16 4.72,-4.72 0,-2.64 -2.18,-4.72 -4.72,-4.72 m 189.46,27.93 c -2.55,0 -4.72,2.09 -4.72,4.63 0,2.64 2.17,4.81 4.72,4.81 2.63,0 4.72,-2.17 4.72,-4.81 0,-2.54 -2.09,-4.63 -4.72,-4.63 m -189.46,0.39 c -2.64,0 -4.71,2.08 -4.71,4.71 0,2.65 2.07,4.72 4.71,4.72 2.54,0 4.72,-2.07 4.72,-4.72 0,-2.63 -2.18,-4.71 -4.72,-4.71 m 189.46,27.92 c -2.55,0 -4.72,2.08 -4.72,4.72 0,2.55 2.17,4.72 4.72,4.72 2.63,0 4.72,-2.17 4.72,-4.72 0,-2.64 -2.09,-4.72 -4.72,-4.72 m -189.46,0.38 c -2.64,0 -4.71,2.17 -4.71,4.71 0,2.65 2.07,4.72 4.71,4.72 2.54,0 4.72,-2.07 4.72,-4.72 0,-2.54 -2.18,-4.71 -4.72,-4.71 m 189.46,27.93 c -2.55,0 -4.72,2.08 -4.72,4.71 0,2.55 2.17,4.72 4.72,4.72 2.63,0 4.72,-2.17 4.72,-4.72 0,-2.63 -2.09,-4.71 -4.72,-4.71 m -189.46,0.38 c -2.64,0 -4.71,2.17 -4.71,4.71 0,2.65 2.07,4.72 4.71,4.72 2.54,0 4.72,-2.07 4.72,-4.72 0,-2.54 -2.18,-4.71 -4.72,-4.71 m 189.46,27.92 c -2.55,0 -4.72,2.09 -4.72,4.72 0,2.64 2.17,4.72 4.72,4.72 2.63,0 4.72,-2.08 4.72,-4.72 0,-2.63 -2.09,-4.72 -4.72,-4.72 m -189.46,0.38 c -2.64,0 -4.71,2.17 -4.71,4.71 0,2.65 2.07,4.72 4.71,4.72 2.54,0 4.72,-2.07 4.72,-4.72 0,-2.54 -2.18,-4.71 -4.72,-4.71 m 189.46,27.93 c -2.55,0 -4.72,2.08 -4.72,4.71 0,2.65 2.17,4.72 4.72,4.72 2.63,0 4.72,-2.07 4.72,-4.72 0,-2.63 -2.09,-4.71 -4.72,-4.71 m -189.46,0.48 c -2.64,0 -4.71,2.07 -4.71,4.71 0,2.55 2.07,4.72 4.71,4.72 2.54,0 4.72,-2.17 4.72,-4.72 0,-2.64 -2.18,-4.71 -4.72,-4.71 m 189.46,27.83 c -2.55,0 -4.72,2.17 -4.72,4.71 0,2.64 2.17,4.72 4.72,4.72 2.63,0 4.72,-2.08 4.72,-4.72 0,-2.54 -2.09,-4.71 -4.72,-4.71 m -189.46,0.48 c -2.64,0 -4.71,2.07 -4.71,4.71 0,2.54 2.07,4.72 4.71,4.72 2.54,0 4.72,-2.18 4.72,-4.72 0,-2.64 -2.18,-4.71 -4.72,-4.71 m 189.46,27.82 c -2.55,0 -4.72,2.18 -4.72,4.81 0,2.55 2.17,4.62 4.72,4.62 2.63,0 4.72,-2.07 4.72,-4.62 0,-2.63 -2.09,-4.81 -4.72,-4.81 m -189.46,0.48 c -2.64,0 -4.71,2.07 -4.71,4.71 0,2.55 2.07,4.72 4.71,4.72 2.54,0 4.72,-2.17 4.72,-4.72 0,-2.64 -2.18,-4.71 -4.72,-4.71 m 189.46,27.93 c -2.55,0 -4.72,2.07 -4.72,4.71 0,2.54 2.17,4.72 4.72,4.72 2.63,0 4.72,-2.18 4.72,-4.72 0,-2.64 -2.09,-4.71 -4.72,-4.71 m -189.46,0.38 c -2.64,0 -4.71,2.07 -4.71,4.71 0,2.63 2.07,4.72 4.71,4.72 2.54,0 4.72,-2.09 4.72,-4.72 0,-2.64 -2.18,-4.71 -4.72,-4.71 m 189.46,27.92 c -2.55,0 -4.72,2.08 -4.72,4.71 0,2.55 2.17,4.73 4.72,4.73 2.63,0 4.72,-2.18 4.72,-4.73 0,-2.63 -2.09,-4.71 -4.72,-4.71 m -189.46,0.38 c -2.64,0 -4.71,2.07 -4.71,4.72 0,2.63 2.07,4.71 4.71,4.71 2.54,0 4.72,-2.08 4.72,-4.71 0,-2.65 -2.18,-4.72 -4.72,-4.72 m 189.46,27.93 c -2.55,0 -4.72,2.07 -4.72,4.71 0,2.64 2.17,4.72 4.72,4.72 2.63,0 4.72,-2.08 4.72,-4.72 0,-2.64 -2.09,-4.71 -4.72,-4.71 m -189.46,0.38 c -2.64,0 -4.71,2.16 -4.71,4.72 0,2.62 2.07,4.71 4.71,4.71 2.54,0 4.72,-2.09 4.72,-4.71 0,-2.56 -2.18,-4.72 -4.72,-4.72 m 189.46,27.92 c -2.55,0 -4.72,2.17 -4.72,4.72 0,2.63 2.17,4.72 4.72,4.72 2.63,0 4.72,-2.09 4.72,-4.72 0,-2.55 -2.09,-4.72 -4.72,-4.72 m -189.46,0.38 c -2.64,0 -4.71,2.17 -4.71,4.81 0,2.54 2.07,4.62 4.71,4.62 2.54,0 4.72,-2.08 4.72,-4.62 0,-2.64 -2.18,-4.81 -4.72,-4.81 m 189.46,27.93 c -2.55,0 -4.72,2.17 -4.72,4.72 0,2.63 2.17,4.71 4.72,4.71 2.63,0 4.72,-2.08 4.72,-4.71 0,-2.55 -2.09,-4.72 -4.72,-4.72 m -189.46,0.47 c -2.64,0 -4.71,2.07 -4.71,4.71 0,2.55 2.07,4.72 4.71,4.72 2.54,0 4.72,-2.17 4.72,-4.72 0,-2.64 -2.18,-4.71 -4.72,-4.71 m 189.46,27.93 c -2.55,0 -4.72,2.07 -4.72,4.62 0,2.63 2.17,4.72 4.72,4.72 2.63,0 4.72,-2.09 4.72,-4.72 0,-2.55 -2.09,-4.62 -4.72,-4.62 m -189.46,0.38 c -2.64,0 -4.71,2.07 -4.71,4.72 0,2.54 2.07,4.71 4.71,4.71 2.54,0 4.72,-2.17 4.72,-4.71 0,-2.65 -2.18,-4.72 -4.72,-4.72 m 189.46,27.92 c -2.55,0 -4.72,2.08 -4.72,4.72 0,2.54 2.17,4.72 4.72,4.72 2.63,0 4.72,-2.18 4.72,-4.72 0,-2.64 -2.09,-4.72 -4.72,-4.72 m -189.46,0.38 c -2.64,0 -4.71,2.07 -4.71,4.72 0,2.63 2.07,4.71 4.71,4.71 2.54,0 4.72,-2.08 4.72,-4.71 0,-2.65 -2.18,-4.72 -4.72,-4.72 m 189.46,27.93 c -2.55,0 -4.72,2.07 -4.72,4.72 0,2.54 2.17,4.71 4.72,4.71 2.63,0 4.72,-2.17 4.72,-4.71 0,-2.65 -2.09,-4.72 -4.72,-4.72 m -189.46,0.38 c -2.64,0 -4.71,2.16 -4.71,4.72 0,2.62 2.07,4.71 4.71,4.71 2.54,0 4.72,-2.09 4.72,-4.71 0,-2.56 -2.18,-4.72 -4.72,-4.72 m 189.46,27.92 c -2.55,0 -4.72,2.08 -4.72,4.72 0,2.55 2.17,4.71 4.72,4.71 2.63,0 4.72,-2.16 4.72,-4.71 0,-2.64 -2.09,-4.72 -4.72,-4.72 m -189.46,0.38 c -2.64,0 -4.71,2.17 -4.71,4.72 0,2.63 2.07,4.71 4.71,4.71 2.54,0 4.72,-2.08 4.72,-4.71 0,-2.55 -2.18,-4.72 -4.72,-4.72 m 189.46,27.93 c -2.55,0 -4.72,2.07 -4.72,4.72 0,2.64 2.17,4.71 4.72,4.71 2.63,0 4.72,-2.07 4.72,-4.71 0,-2.65 -2.09,-4.72 -4.72,-4.72 m -189.46,0.38 c -2.64,0 -4.71,2.16 -4.71,4.72 0,2.63 2.07,4.72 4.71,4.72 2.54,0 4.72,-2.09 4.72,-4.72 0,-2.56 -2.18,-4.72 -4.72,-4.72 m 189.46,27.92 c -2.55,0 -4.72,2.17 -4.72,4.72 0,2.64 2.17,4.72 4.72,4.72 2.63,0 4.72,-2.08 4.72,-4.72 0,-2.55 -2.09,-4.72 -4.72,-4.72 m -189.46,0.38 c -2.64,0 -4.71,2.17 -4.71,4.82 0,2.54 2.07,4.71 4.71,4.71 2.54,0 4.72,-2.17 4.72,-4.71 0,-2.65 -2.18,-4.82 -4.72,-4.82 m 189.55,27.93 h -0.09 c -2.55,0 -4.62,2.07 -4.72,4.63 0,2.63 1.98,4.81 4.62,4.81 0.05,0 0.11,0 0.16,0 2.57,0 4.56,-2.04 4.66,-4.63 0.09,-2.54 -1.98,-4.72 -4.63,-4.81 m -189.55,0.47 h -0.28 c -2.65,0.19 -4.63,2.45 -4.43,5 0.17,2.52 2.25,4.45 4.74,4.45 0.11,0 0.23,-0.01 0.34,-0.02 2.55,-0.18 4.53,-2.45 4.35,-5.09 -0.2,-2.45 -2.27,-4.34 -4.72,-4.34 m 165.77,7.75 c -2.63,0 -4.81,2.07 -4.81,4.71 0,2.54 2.18,4.72 4.81,4.72 2.55,0 4.62,-2.18 4.62,-4.72 0,-2.64 -2.07,-4.71 -4.62,-4.71 m -28.4,0 c -2.54,0 -4.71,2.07 -4.71,4.71 0,2.54 2.17,4.72 4.71,4.72 2.65,0 4.72,-2.18 4.72,-4.72 0,-2.64 -2.07,-4.71 -4.72,-4.71 m -28.31,0 c -2.54,0 -4.71,2.07 -4.71,4.71 0,2.54 2.17,4.72 4.71,4.72 2.65,0 4.72,-2.18 4.72,-4.72 0,-2.64 -2.07,-4.71 -4.72,-4.71 m -28.3,0 c -2.64,0 -4.71,2.07 -4.71,4.71 0,2.54 2.07,4.72 4.71,4.72 2.64,0 4.72,-2.18 4.72,-4.72 0,-2.64 -2.08,-4.71 -4.72,-4.71 m -28.31,0 c -2.64,0 -4.71,2.07 -4.71,4.71 0,2.54 2.07,4.72 4.71,4.72 2.65,0 4.72,-2.18 4.72,-4.72 0,-2.64 -2.07,-4.71 -4.72,-4.71 m -28.3,0 c -2.64,0 -4.71,2.07 -4.71,4.71 0,2.54 2.07,4.72 4.71,4.72 2.55,0 4.72,-2.18 4.72,-4.72 0,-2.64 -2.17,-4.71 -4.72,-4.71"
       style="fill:#3f9d7b;fill-opacity:1;fill-rule:nonzero;stroke:none"
       id="path254" />
    <path
       d="m 3733.15,1586.43 h -25.11 v 592.62 h 25.11 v -592.62"
       style="fill:#f68554;fill-opacity:1;fill-rule:nonzero;stroke:none"
       id="path256" />
    <path
       d="m 3819.88,2071.25 h -90.74 v 19.26 h 90.74 v -19.26"
       style="fill:#f68554;fill-opacity:1;fill-rule:nonzero;stroke:none"
       id="path258" />
    <path
       d="m 3819.88,1674.97 h -90.74 v 19.27 h 90.74 v -19.27"
       style="fill:#f68554;fill-opacity:1;fill-rule:nonzero;stroke:none"
       id="path260" />
    <g
       id="g262"
       transform="scale(10)">
      <text
         transform="matrix(1,4e-8,4e-8,-1,390.621,208.961)"
         style="font-variant:normal;font-weight:900;font-size:13.0281px;font-family:Montserrat;-inkscape-font-specification:Montserrat-Black;writing-mode:lr-tb;fill:#ffffff;fill-opacity:1;fill-rule:nonzero;stroke:none"
         id="text274"><tspan
           x="0"
           y="0"
           id="tspan264">S</tspan><tspan
           x="0.019921299"
           y="13.0277"
           id="tspan266">T</tspan><tspan
           x="-1.2441387"
           y="26.055799"
           id="tspan268">O</tspan><tspan
           x="-0.57304567"
           y="39.0839"
           id="tspan270">R</tspan><tspan
           x="-0.1039057"
           y="52.112"
           id="tspan272">E</tspan></text>
    </g>
    <path
       d="m 1699.37,1844.35 -169.9,2.51 35.64,128.34 162.01,-2.39 -84.94,81.95 c -2.38,-2.24 -5.58,-3.63 -9.11,-3.63 -0.06,0 -0.12,0 -0.18,0 -3.54,0.05 -6.72,1.51 -9.07,3.81 l -48.89,-44.36 4.73,17.03 40.22,36.49 -0.04,0.48 c 0.11,7.25 6.02,13.04 13.24,13.04 0.07,0 0.14,0 0.2,0 7.32,-0.1 13.16,-6.12 13.05,-13.43 l -0.02,-0.29 89.93,-86.77 -36.87,-132.78 m -226.79,11.94 1.71,115.74 c 0.04,2.46 2.05,4.44 4.5,4.44 0.03,0 0.05,0 0.08,0 l 26.97,-0.4 -33.26,-119.78"
       style="fill:#dde592;fill-opacity:1;fill-rule:nonzero;stroke:none"
       id="path276" />
    <path
       d="m 1529.47,1846.86 -52.51,0.77 c -2.49,0.04 -4.48,2.09 -4.44,4.58 l 0.06,4.08 33.26,119.78 16.74,-0.24 57.08,51.78 -4.73,-17.03 -38.53,-34.96 28.71,-0.42 -35.64,-128.34"
       style="fill:#e5eba8;fill-opacity:1;fill-rule:nonzero;stroke:none"
       id="path278" />
    <path
       d="m 1783.06,1843.12 c -0.03,0 -0.05,0 -0.08,0 l -83.61,1.23 36.87,132.78 4.69,-4.53 43.95,-0.64 c 2.5,-0.04 4.49,-2.09 4.45,-4.58 l -1.77,-119.81 c -0.03,-2.47 -2.05,-4.45 -4.5,-4.45"
       style="fill:#e5eba8;fill-opacity:1;fill-rule:nonzero;stroke:none"
       id="path280" />
    <path
       d="M 1794.01,2006.11 1492.43,1954 c -2.46,-0.43 -4.1,-2.76 -3.68,-5.21 l 20.41,-118.08 c 0.42,-2.46 2.76,-4.1 5.21,-3.68 l 301.58,52.12 c 2.46,0.42 4.11,2.75 3.68,5.21 l -20.4,118.08 c -0.43,2.45 -2.76,4.1 -5.22,3.67"
       style="fill:#ed5e4c;fill-opacity:1;fill-rule:nonzero;stroke:none"
       id="path282" />
    <g
       id="g284"
       transform="scale(10)">
      <text
         transform="matrix(0.985396,0.170279,0.170279,-0.985396,153.081,186.999)"
         style="font-variant:normal;font-weight:900;font-size:8.50181px;font-family:Montserrat;-inkscape-font-specification:Montserrat-Black;writing-mode:lr-tb;fill:#ffffff;fill-opacity:1;fill-rule:nonzero;stroke:none"
         id="text288"><tspan
           x="0 7.2095356 13.441704 19.163101"
           y="0"
           sodipodi:role="line"
           id="tspan286">OPEN</tspan></text>
    </g>
    <path
       d="m 1539.22,1952.82 c -1.24,-0.22 -2.56,0.07 -3.65,0.88 -2.08,1.58 -2.49,4.54 -0.92,6.61 l 88.52,116.89 c 1.5,1.99 4.27,2.46 6.34,1.1 l 122.37,-80.45 c 2.18,-1.44 2.78,-4.37 1.35,-6.53 -1.43,-2.2 -4.36,-2.77 -6.53,-1.36 l -118.68,78.03 -85.84,-113.37 c -0.75,-0.99 -1.82,-1.61 -2.96,-1.8"
       style="fill:#ed5e4c;fill-opacity:1;fill-rule:nonzero;stroke:none"
       id="path290" />
    <path
       d="m 1640.8,2071.15 c 1.25,-7.22 -3.59,-14.07 -10.8,-15.31 -7.21,-1.25 -14.07,3.58 -15.31,10.8 -1.25,7.2 3.59,14.06 10.8,15.31 7.21,1.24 14.07,-3.59 15.31,-10.8"
       style="fill:#ffffff;fill-opacity:1;fill-rule:nonzero;stroke:none"
       id="path292" />
    <path
       d="m 3374.21,1004.73 h 110.82 v 40.1484 h -110.82 z"
       style="fill:#f25c34;fill-opacity:1;fill-rule:nonzero;stroke:none"
       id="path294" />
    <path
       d="m 3007.24,926.039 h 110.813 v 40.1523 H 3007.24 Z"
       style="fill:#f25c34;fill-opacity:1;fill-rule:nonzero;stroke:none"
       id="path296" />
    <path
       d="m 2936.92,979.84 h 110.809 v 40.1484 H 2936.92 Z"
       style="fill:#f25c34;fill-opacity:1;fill-rule:nonzero;stroke:none"
       id="path298" />
    <path
       d="m 2742.59,920.422 h 110.809 v 40.1484 H 2742.59 Z"
       style="fill:#f25c34;fill-opacity:1;fill-rule:nonzero;stroke:none"
       id="path300" />
    <path
       d="m 1997.64,1042.36 h 110.809 v 40.1523 H 1997.64 Z"
       style="fill:#f25c34;fill-opacity:1;fill-rule:nonzero;stroke:none"
       id="path302" />
    <path
       d="m 903.996,1462.96 h -33.891 v 1277.92 c 0,70.57 -57.421,128 -128.003,128 -70.582,0 -127.989,-57.43 -127.989,-128 v -57.28 h -33.89 v 57.28 c 0,89.26 72.617,161.89 161.879,161.89 89.261,0 161.894,-72.63 161.894,-161.89 V 1462.96"
       style="fill:#d14633;fill-opacity:1;fill-rule:nonzero;stroke:none"
       id="path304" />
    <path
       d="m 761.57,2868.88 c -3.289,0 -6.511,-0.25 -9.734,-0.49 66.031,-5.01 118.269,-60.22 118.269,-127.51 V 1462.96 h 19.465 v 1277.92 c 0,70.57 -57.422,128 -128,128"
       style="fill:#ed5e4c;fill-opacity:1;fill-rule:nonzero;stroke:none"
       id="path306" />
    <path
       d="m 725.145,2608.93 c -1.325,-0.33 -2.598,-0.81 -4.032,-0.81 H 472.492 c -1.426,0 -2.707,0.48 -4.027,0.81 -24.516,-29.15 -39.324,-66.72 -39.324,-107.79 0,-92.6 75.062,-167.66 167.664,-167.66 92.593,0 167.66,75.06 167.66,167.66 0,41.07 -14.817,78.64 -39.32,107.79"
       style="fill:#f78f5d;fill-opacity:1;fill-rule:nonzero;stroke:none"
       id="path308" />
    <path
       d="m 539.309,2395.88 c -1.543,0 -3.075,0.27 -4.524,0.88 -19.484,8.08 -38.305,18.65 -51.629,35.44 -14.699,18.53 -21.863,41.84 -16.527,65.28 1.777,7.82 9.297,12.28 16.789,12.28 1.363,0 2.727,-0.14 4.055,-0.45 7.59,-1.73 12.211,-9.19 12.285,-16.67 0.043,-4.73 -1.348,-9.21 -0.91,-14.03 0.394,-4.32 1.515,-8.68 2.933,-12.72 7.989,-17.77 24.809,-28.74 42.02,-36.43 l 1.062,-0.48 c 8.129,-3.56 12.766,-11.61 10.77,-20.39 -1.531,-6.72 -9.11,-12.71 -16.324,-12.71 m -37.024,68.62 v 0"
       style="fill:#f9ac76;fill-opacity:1;fill-rule:nonzero;stroke:none"
       id="path310" />
    <path
       d="m 504.012,2487.72 v -0.12 l 0.039,0.5 -0.028,-0.11 -0.011,-0.27"
       style="fill:#ffffff;fill-opacity:1;fill-rule:nonzero;stroke:none"
       id="path312" />
    <path
       d="m 472.492,2608.12 h -4.652 l 0.625,0.81 c 1.32,-0.33 2.601,-0.81 4.027,-0.81"
       style="fill:#f68b47;fill-opacity:1;fill-rule:nonzero;stroke:none"
       id="path314" />
    <path
       d="m 596.805,2333.48 c -0.075,0 -0.149,0 -0.219,0 0.07,0 0.144,0 0.219,0 92.593,0 167.66,75.06 167.66,167.66 v 0 c 0,-92.6 -75.067,-167.66 -167.66,-167.66 m 124.308,274.64 c 1.407,0 2.668,0.46 3.969,0.8 -1.301,-0.34 -2.559,-0.8 -3.969,-0.8"
       style="fill:#f57d4d;fill-opacity:1;fill-rule:nonzero;stroke:none"
       id="path316" />
    <path
       d="m 596.805,2333.48 c -0.075,0 -0.149,0 -0.219,0 -9.266,0.02 -18.293,0.97 -27.152,2.43 79.546,13.09 140.293,81.98 140.293,165.23 0,40.7 -14.579,77.94 -38.696,106.98 h 50.082 v 0 c 1.41,0 2.668,0.46 3.969,0.8 0.02,0 0.039,0.01 0.063,0.01 24.503,-29.15 39.32,-66.72 39.32,-107.79 0,-92.6 -75.067,-167.66 -167.66,-167.66"
       style="fill:#f25c34;fill-opacity:1;fill-rule:nonzero;stroke:none"
       id="path318" />
    <path
       d="M 683.102,2642.3 H 510.508 c 0,27.78 22.519,50.3 50.301,50.3 h 71.992 c 27.781,0 50.301,-22.52 50.301,-50.3"
       style="fill:#64ab91;fill-opacity:1;fill-rule:nonzero;stroke:none"
       id="path320" />
    <path
       d="M 721.113,2608.12 H 472.492 c -9.234,0 -16.722,7.49 -16.722,16.72 v 18.4 c 0,9.23 7.488,16.72 16.722,16.72 h 248.621 c 9.235,0 16.727,-7.49 16.727,-16.72 v -18.4 c 0,-9.23 -7.492,-16.72 -16.727,-16.72"
       style="fill:#7ccba9;fill-opacity:1;fill-rule:nonzero;stroke:none"
       id="path322" />
    <path
       d="m 922.879,1456.56 h -71.66 v 14.26 c 0,2.83 2.289,5.11 5.117,5.11 h 61.418 c 2.828,0 5.125,-2.28 5.125,-5.11 v -14.26"
       style="fill:#ed5e4c;fill-opacity:1;fill-rule:nonzero;stroke:none"
       id="path324" />
    <path
       d="M 953.387,849.84 H 820.703 v 566.15 c 0,25.04 20.301,45.34 45.34,45.34 h 42.004 c 25.039,0 45.34,-20.3 45.34,-45.34 V 849.84"
       style="fill:#d14633;fill-opacity:1;fill-rule:nonzero;stroke:none"
       id="path326" />
    <path
       d="m 908.047,1461.33 h -42 l -0.274,-0.02 c 24.911,-0.15 45.067,-20.37 45.067,-45.32 V 849.84 h 42.547 v 566.15 c 0,25.04 -20.301,45.34 -45.34,45.34"
       style="fill:#ed5e4c;fill-opacity:1;fill-rule:nonzero;stroke:none"
       id="path328" />
    <path
       d="M 996.832,836.691 H 777.258 c -5.973,0 -10.817,4.84 -10.817,10.809 v 0.012 c 0,5.957 4.844,10.808 10.817,10.808 h 219.574 c 5.968,0 10.818,-4.851 10.818,-10.808 V 847.5 c 0,-5.969 -4.85,-10.809 -10.818,-10.809"
       style="fill:#d14633;fill-opacity:1;fill-rule:nonzero;stroke:none"
       id="path330" />
    <path
       d="m 3915.46,1152.94 c -3.56,-6.97 -6.42,-15.55 -12.38,-20.96 -7.58,-6.89 -19.41,-8.44 -28.93,-10.76 -28.93,-7.03 -58.4,-12.3 -88.03,-15.63 -59.1,-6.65 -119.13,-5.8 -178,2.64 -12.61,1.78 -25.76,4.25 -35.66,12.22 -12.77,10.21 -17.41,27.3 -20.58,43.39 -1.62,7.82 -3.02,15.71 -3.63,23.68 -0.77,9.21 -0.63,18.33 1.32,27.3 3.63,16.79 14.62,32.88 30.93,38.21 -14.38,11.46 -20.26,32.49 -13.84,49.75 6.42,17.25 24.6,29.39 43,28.62 -2.01,27 -1.08,54.69 7.75,80.3 8.74,25.6 26.22,49.04 50.74,60.64 35.59,16.94 81.14,4.65 107.68,-24.52 26.53,-29.24 34.97,-72.17 27.08,-110.85 19.25,-0.85 34.96,-21.82 30.4,-40.62 8.28,-0.07 16.39,-1.38 24.28,-3.78 27.39,-7.9 51.29,-28.08 62.59,-54.39 11.98,-27.76 8.66,-58.71 -4.72,-85.24"
       style="fill:#ed5e4c;fill-opacity:1;fill-rule:nonzero;stroke:none"
       id="path332" />
    <path
       d="m 3915.46,1152.94 c -3.56,-6.97 -6.42,-15.55 -12.38,-20.96 -7.58,-6.89 -19.41,-8.44 -28.93,-10.76 -28.93,-7.03 -58.4,-12.3 -88.03,-15.63 -59.1,-6.65 -119.13,-5.8 -178,2.64 -12.61,1.78 -25.76,4.25 -35.66,12.22 -12.77,10.21 -17.41,27.3 -20.58,43.39 -1.62,7.82 -3.02,15.71 -3.63,23.68 83.62,-1.7 167.55,12.92 245.53,43.08 19.96,7.74 40.45,17.18 53.45,34.27 5.96,7.89 9.67,17.79 10.36,27.7 27.39,-7.9 51.29,-28.08 62.59,-54.39 11.98,-27.76 8.66,-58.71 -4.72,-85.24"
       style="fill:#ed5e4c;fill-opacity:1;fill-rule:nonzero;stroke:none"
       id="path334" />
    <path
       d="m 3916.1,1106.67 -8.23,-57.61 -30.63,-216.251 h -273.72 l -30.62,216.251 -8.23,57.61 h 351.43"
       style="fill:#ecf2bf;fill-opacity:1;fill-rule:nonzero;stroke:none"
       id="path336" />
    <path
       d="M 3907.87,1049.06 H 3572.9 l -8.23,57.61 h 351.43 l -8.23,-57.61"
       style="fill:#dde592;fill-opacity:1;fill-rule:nonzero;stroke:none"
       id="path338" />
    <path
       d="m 3926.3,1072.02 h -371.83 l -9.84,94.05 h 391.5 l -9.83,-94.05"
       style="fill:#ecf2bf;fill-opacity:1;fill-rule:nonzero;stroke:none"
       id="path340" />
    <path
       d="m 3660.04,1345.07 c -10.5,0 -19.02,12.49 -19.02,27.89 0,15.41 8.52,27.9 19.02,27.9 10.49,0 19.01,-12.49 19.01,-27.9 0,-15.4 -8.52,-27.89 -19.01,-27.89"
       style="fill:#f57d5d;fill-opacity:1;fill-rule:nonzero;stroke:none"
       id="path342" />
    <path
       d="m 3707.19,1325.55 c -5.39,0 -9.76,6.42 -9.76,14.33 0,7.91 4.37,14.32 9.76,14.32 5.38,0 9.76,-6.41 9.76,-14.32 0,-7.91 -4.38,-14.33 -9.76,-14.33"
       style="fill:#f57d5d;fill-opacity:1;fill-rule:nonzero;stroke:none"
       id="path344" />
    <path
       d="m 3634.61,1300.38 c -5.4,0 -9.76,6.4 -9.76,14.31 0,7.91 4.36,14.32 9.76,14.32 5.39,0 9.75,-6.41 9.75,-14.32 0,-7.91 -4.36,-14.31 -9.75,-14.31"
       style="fill:#f57d5d;fill-opacity:1;fill-rule:nonzero;stroke:none"
       id="path346" />
    <path
       d="m 3707.19,1412.96 c -2.79,0 -5.05,3.31 -5.05,7.4 0,4.09 2.26,7.41 5.05,7.41 2.79,0 5.04,-3.32 5.04,-7.41 0,-4.09 -2.25,-7.4 -5.04,-7.4"
       style="fill:#f57d5d;fill-opacity:1;fill-rule:nonzero;stroke:none"
       id="path348" />
    <path
       d="m 1166.33,1195.04 c -0.29,-24.96 -4.98,-49.92 -13.73,-73.3 -4.83,-12.8 -10.94,-33.71 -24.45,-40.1 -17.49,-8.24 -41.38,-9.1 -60.29,-11.8 -46.21,-6.76 -93.063,-9.46 -139.774,-8.18 -3.129,0.07 -6.328,0.21 -9.523,0.36 -24.247,1.21 -48.989,4.98 -68.254,19.27 -3.911,2.98 -7.539,6.25 -10.805,9.8 -13.367,14.51 -21.758,33.57 -28.227,52.47 -4.265,12.37 -7.964,25.17 -9.812,38.11 -1.992,13.65 -1.918,27.3 1.562,40.59 6.895,25.96 30.649,48.99 57.375,46.79 -18.839,16.06 -21.968,47.34 -6.613,66.83 15.289,19.41 46.43,23.81 66.477,9.31 -8.106,37.96 14.433,80.2 50.476,94.63 36.048,14.5 81.478,-0.5 101.878,-33.56 15.86,-25.74 16.57,-58.44 9.39,-87.73 9.1,1.63 18.98,-2.49 24.1,-10.16 5.12,-7.69 5.19,-18.35 0.14,-26.1 9.17,0.07 17.99,-2.7 25.81,-7.47 9.03,-5.47 16.71,-13.5 21.97,-22.67 9.81,-17.06 12.51,-37.4 12.3,-57.09"
       style="fill:#7ccba9;fill-opacity:1;fill-rule:nonzero;stroke:none"
       id="path350" />
    <path
       d="M 1136.13,1087.81 H 845.242 c -1.929,1.06 -3.844,2.16 -5.738,3.28 v 0 c -13.367,14.51 -21.758,33.57 -28.227,52.47 -4.265,12.37 -7.964,25.17 -9.812,38.11 34.836,-9.72 71.113,-13.83 107.64,-13.83 38.317,0 76.903,4.53 114.395,11.85 28.01,5.46 56.8,12.93 78.84,31.13 11.02,9.03 19.69,21.11 24.46,34.55 3.34,9.25 1.85,20.34 5.26,29.43 9.03,-5.47 16.71,-13.5 21.97,-22.67 9.46,-16.47 12.31,-35.97 12.31,-55.01 0,-0.7 -0.01,-1.39 -0.01,-2.08 -0.29,-24.96 -4.98,-49.92 -13.73,-73.3 -3.76,-9.95 -8.29,-24.81 -16.47,-33.93"
       style="fill:#3f9d7b;fill-opacity:1;fill-rule:nonzero;stroke:none"
       id="path352" />
    <path
       d="m 1144.73,1087.81 -7.56,-52.94 -28.15,-198.741 H 857.461 l -28.145,198.741 -7.562,52.94 h 322.976"
       style="fill:#ecf2bf;fill-opacity:1;fill-rule:nonzero;stroke:none"
       id="path354" />
    <path
       d="M 1137.17,1034.87 H 829.316 l -7.562,52.94 h 322.976 l -7.56,-52.94"
       style="fill:#dde592;fill-opacity:1;fill-rule:nonzero;stroke:none"
       id="path356" />
    <path
       d="M 1154.1,1055.97 H 812.375 l -9.043,86.44 h 359.818 l -9.05,-86.44"
       style="fill:#ecf2bf;fill-opacity:1;fill-rule:nonzero;stroke:none"
       id="path358" />
    <path
       d="m 966.578,1306.91 c -9.648,0 -17.469,11.49 -17.469,25.65 0,14.16 7.821,25.63 17.469,25.63 9.649,0 17.473,-11.47 17.473,-25.63 0,-14.16 -7.824,-25.65 -17.473,-25.65"
       style="fill:#9fdac0;fill-opacity:1;fill-rule:nonzero;stroke:none"
       id="path360" />
    <path
       d="m 1009.91,1288.99 c -4.95,0 -8.96,5.89 -8.96,13.16 0,7.26 4.01,13.16 8.96,13.16 4.96,0 8.97,-5.9 8.97,-13.16 0,-7.27 -4.01,-13.16 -8.97,-13.16"
       style="fill:#9fdac0;fill-opacity:1;fill-rule:nonzero;stroke:none"
       id="path362" />
    <path
       d="m 887.996,1288.08 c -7.094,0 -12.832,8.43 -12.832,18.83 0,10.4 5.738,18.84 12.832,18.84 7.09,0 12.828,-8.44 12.828,-18.84 0,-10.4 -5.738,-18.83 -12.828,-18.83"
       style="fill:#9fdac0;fill-opacity:1;fill-rule:nonzero;stroke:none"
       id="path364" />
    <path
       d="m 943.211,1265.85 c -4.957,0 -8.973,5.88 -8.973,13.15 0,7.27 4.016,13.17 8.973,13.17 4.949,0 8.965,-5.9 8.965,-13.17 0,-7.27 -4.016,-13.15 -8.965,-13.15"
       style="fill:#9fdac0;fill-opacity:1;fill-rule:nonzero;stroke:none"
       id="path366" />
    <path
       d="m 1009.91,1366.89 c -3.47,0 -6.28,4.13 -6.28,9.23 0,5.1 2.81,9.23 6.28,9.23 3.48,0 6.29,-4.13 6.29,-9.23 0,-5.1 -2.81,-9.23 -6.29,-9.23"
       style="fill:#9fdac0;fill-opacity:1;fill-rule:nonzero;stroke:none"
       id="path368" />
    <path
       d="m 3111.78,1948.12 c -5.07,12.59 -20.9,20.48 -20.9,34.06 0,11.98 12.4,19.76 17.96,30.37 7.66,14.59 1.55,32.23 1.52,48.71 -0.06,30.57 24.65,59.27 54.89,63.77 28.6,4.24 58.75,-13.69 69.4,-40.41 12.91,1.49 26.4,-1.88 36.84,-9.65 12.98,-9.67 20.9,-25.78 20.63,-41.96 -0.2,-12.14 -4.3,-25.76 3.02,-35.44 6.44,-8.5 19.48,-10.18 25.22,-19.16 6.52,-10.2 0.34,-23.95 3.48,-35.64 5.29,-19.67 32.32,-23.66 44.54,-39.95 10.88,-14.51 7.06,-36.28 -4.53,-50.24 -11.58,-13.97 -29.06,-21.58 -46.36,-27.03 -34.44,-10.83 -70.95,-14.99 -106.94,-12.19 -12.6,0.97 -25.89,3.12 -35.52,11.31 -7.13,6.04 -11.47,14.75 -18.09,21.34 -8.04,8 -18.86,12.39 -28.74,17.92 -9.88,5.55 -19.64,13.25 -22.56,24.2 -5.26,19.79 13.8,41 6.14,59.99"
       style="fill:#040606;fill-opacity:1;fill-rule:nonzero;stroke:none"
       id="path370" />
    <path
       d="m 3595.09,705.48 c 0,-19.128 -205.28,-34.628 -458.5,-34.628 -253.22,0 -458.51,15.5 -458.51,34.628 0,19.122 205.29,34.61 458.51,34.61 253.22,0 458.5,-15.488 458.5,-34.61"
       style="fill:#fac1a7;fill-opacity:1;fill-rule:nonzero;stroke:none"
       id="path372" />
    <path
       d="m 3061.83,769.102 -93.46,-31.493 c 0,0 -16.23,-10.148 -19.85,-25.379 0,0 172.61,-2.558 173.13,0 0,0 5.41,30.84 -6.61,56.872 h -53.21"
       style="fill:#322436;fill-opacity:1;fill-rule:nonzero;stroke:none"
       id="path374" />
    <path
       d="m 3060.56,813.629 1.27,-44.527 c 0,0 16.32,-7.633 53.21,0 l 2.64,48.789 -57.12,-4.262"
       style="fill:#8d3725;fill-opacity:1;fill-rule:nonzero;stroke:none"
       id="path376" />
    <path
       d="m 3284.25,749.242 -93.46,-31.504 c 0,0 -16.23,-10.148 -19.85,-25.379 h 173.13 c 0,0 5.41,30.84 -6.61,56.883 h -53.21"
       style="fill:#322436;fill-opacity:1;fill-rule:nonzero;stroke:none"
       id="path378" />
    <path
       d="m 3282.77,793.762 1.28,-44.52 c 0,0 16.31,-7.633 53.19,0 l 2.66,48.77 -57.13,-4.25"
       style="fill:#8d3725;fill-opacity:1;fill-rule:nonzero;stroke:none"
       id="path380" />
    <path
       d="m 3137,1847.94 c 0,0 -22.39,-226.41 -34.26,-250.26 -11.86,-23.85 -130.69,-159.5 -130.69,-159.5 l 27.56,-25.43 c 0,0 126.56,112.36 159.4,165.48 33.41,54.01 28.08,195.01 28.08,195.01 l -50.09,74.7"
       style="fill:#8d3725;fill-opacity:1;fill-rule:nonzero;stroke:none"
       id="path382" />
    <path
       d="m 3137.04,1847.97 c -8.76,-3.51 -31.35,-134.5 -31.35,-134.5 0,0 17.46,-11.44 59.32,-14.15 l -5.26,114.67 -22.71,33.98"
       style="fill:#f78f5d;fill-opacity:1;fill-rule:nonzero;stroke:none"
       id="path384" />
    <path
       d="m 3103.76,1447.81 c 0,0 -63.75,-320.54 -55.24,-653.708 0,0 37.31,-9.36 81.21,-1.383 0,0 43.02,455.691 114.69,655.091 h -140.66"
       style="fill:#d14633;fill-opacity:1;fill-rule:nonzero;stroke:none"
       id="path386" />
    <path
       d="m 3335.06,1444.63 c 0,0 -1.76,-305.76 11.99,-665.278 0,0 -37.48,-13.223 -80.77,-4.372 0,0 -62.12,424.21 -54.31,669.65 h 123.09"
       style="fill:#d14633;fill-opacity:1;fill-rule:nonzero;stroke:none"
       id="path388" />
    <path
       d="m 3097.71,1436.83 33.55,190.68 c 0,0 -1.5,172.02 5.78,220.46 l 53.9,17.57 h 52.97 l 53.55,-17.57 6.5,-225.34 c 0,0 35.36,-149.48 34.38,-183.52 0,0 -121.88,-33.56 -240.63,-2.28"
       style="fill:#f78f5d;fill-opacity:1;fill-rule:nonzero;stroke:none"
       id="path390" />
    <path
       d="m 3133.66,1971.98 c 0.69,-15.34 3.98,-30.25 12.14,-40.66 5.88,-7.52 11.55,-12.6 16.74,-16.56 17.03,-13.04 29.17,-14.57 28.55,-52.63 0,0 24.64,-25.91 52.43,-1.48 0,0 1.01,32.05 12.07,69.52 1.31,4.53 2.8,9.09 4.42,13.74 0.91,2.57 1.88,5.18 2.93,7.79 0.59,1.54 1.23,3.13 1.9,4.71 0,0 0.42,4.09 0.93,10.47 1.46,17.48 3.96,51.97 1.96,64.96 -9.55,61.02 -114.97,60.55 -125.99,6.28 0,0 -9.6,-34.12 -8.08,-66.14"
       style="fill:#8d3725;fill-opacity:1;fill-rule:nonzero;stroke:none"
       id="path392" />
    <path
       d="m 3280.09,2035.45 c -2.88,11.61 -8.51,22.75 -17.3,30.87 -8.82,8.13 -20.22,12.78 -31.34,17.25 -15.91,6.41 -33.18,12.93 -49.8,8.67 -14.41,-3.69 -25.56,-14.84 -35.44,-25.95 -4.32,-4.86 -8.6,-9.9 -11.21,-15.84 -2.61,-5.95 -3.37,-13.02 -0.56,-18.88 l 4.28,-3.31 c 1.4,8.74 9.98,14.67 18.56,16.89 8.58,2.22 17.63,1.79 26.32,3.51 8.69,1.72 17.7,6.42 20.62,14.79 -0.07,-5.97 3.9,-11.34 8.71,-14.9 4.8,-3.56 10.46,-5.74 15.72,-8.58 5.26,-2.84 10.37,-6.62 12.79,-12.09 2.61,-5.9 1.66,-12.65 1.6,-19.09 -0.09,-9.25 2.06,-19.08 8.63,-25.6 6.56,-6.52 18.37,-8.19 24.94,-1.69 4.67,4.61 5.58,11.72 5.96,18.27 0.7,11.95 0.41,24.06 -2.48,35.68"
       style="fill:#040606;fill-opacity:1;fill-rule:nonzero;stroke:none"
       id="path394" />
    <path
       d="m 3195.8,1898.38 c -0.72,0 -1.44,0.01 -2.16,0.04 l -0.19,0.01 -1.03,1.28 1.3,1.23 c 0.68,-0.03 1.37,-0.04 2.06,-0.04 10.37,0 20.63,2.56 29.79,7.46 l 1.71,-0.52 -0.52,-1.71 c -9.52,-5.08 -20.18,-7.75 -30.96,-7.75"
       style="fill:#3b0d12;fill-opacity:1;fill-rule:nonzero;stroke:none"
       id="path396" />
    <path
       d="m 3169.07,1977.31 c -1.52,0.46 -3.18,0.91 -4.75,0.38 -1.47,-0.49 -2.48,-1.7 -2.72,-3.23 -0.54,-3.3 2.34,-5.58 4.94,-6.89 l 1.33,0.3 -0.32,1.33 c -1.82,0.92 -4.27,2.39 -4.1,4.76 0.07,0.91 0.63,1.68 1.52,1.93 1.19,0.33 2.41,-0.07 3.54,-0.41 1.18,-0.37 1.74,1.47 0.56,1.83"
       style="fill:#61261d;fill-opacity:1;fill-rule:nonzero;stroke:none"
       id="path398" />
    <path
       d="m 3135.48,1976.91 c -0.16,-2.87 3.22,-5.41 7.55,-5.65 4.35,-0.26 8,1.86 8.17,4.73 0.16,2.87 -3.22,5.41 -7.56,5.66 -4.34,0.25 -7.99,-1.87 -8.16,-4.74"
       style="fill:#b53028;fill-opacity:1;fill-rule:nonzero;stroke:none"
       id="path400" />
    <path
       d="m 3184.64,1975.21 c -0.16,-2.87 3.22,-5.4 7.55,-5.65 4.35,-0.26 8,1.86 8.17,4.74 0.16,2.87 -3.22,5.4 -7.56,5.66 -4.34,0.25 -7.99,-1.88 -8.16,-4.75"
       style="fill:#b53028;fill-opacity:1;fill-rule:nonzero;stroke:none"
       id="path402" />
    <path
       d="m 3180.22,2010.61 c 4.94,-0.17 9.75,-1.64 13.99,-4.17 0.99,-0.59 1.29,-2.14 0.62,-3.06 -0.74,-1.02 -2.01,-1.26 -3.08,-0.63 l -1.47,0.83 -0.3,0.16 -0.08,0.04 -0.83,0.37 c -0.97,0.41 -1.96,0.77 -2.98,1.07 -2.11,0.63 -3.79,0.89 -6.12,0.97 -1.16,0.05 -2.2,1.17 -2.08,2.34 0.12,1.21 1.1,2.13 2.33,2.08"
       style="fill:#040606;fill-opacity:1;fill-rule:nonzero;stroke:none"
       id="path404" />
    <path
       d="m 3158.77,2011.69 c -4.93,-0.42 -9.65,-2.11 -13.76,-4.85 -0.97,-0.64 -1.21,-2.19 -0.47,-3.09 0.78,-0.97 2.06,-1.17 3.09,-0.47 l 1.44,0.9 0.29,0.16 0.08,0.04 0.8,0.41 c 0.96,0.47 1.93,0.87 2.93,1.22 2.08,0.73 3.75,1.08 6.06,1.27 1.16,0.1 2.15,1.27 1.98,2.43 -0.19,1.21 -1.2,2.07 -2.44,1.98"
       style="fill:#040606;fill-opacity:1;fill-rule:nonzero;stroke:none"
       id="path406" />
    <path
       d="m 3162.48,1955.21 0.11,-0.03 0.49,-0.16 1.09,-0.3 1.1,-0.2 v -0.01 h 0.05 l 0.6,-0.04 2.15,0.05 0.2,0.02 0.47,0.08 1.09,0.26 1.08,0.36 0.06,0.02 h 0.01 l 0.48,0.23 1.98,1.16 0.07,0.04 0.39,0.32 0.92,0.84 0.71,0.77 0.16,0.19 0.31,0.42 c 0.77,1.11 2.29,1.74 3.55,0.95 1.1,-0.71 1.77,-2.35 0.94,-3.54 -2.26,-3.25 -5.48,-5.69 -9.32,-6.77 -3.78,-1.07 -7.7,-0.64 -11.29,0.85 -1.26,0.53 -1.64,2.47 -0.95,3.54 0.84,1.31 2.2,1.51 3.55,0.95"
       style="fill:#911822;fill-opacity:1;fill-rule:nonzero;stroke:none"
       id="path408" />
    <path
       d="m 3177.88,1988.14 -0.23,0.03 -0.62,1.07 c 0.21,0.8 2.16,7.78 6.26,7.99 4.26,0.24 6.24,-7.15 6.45,-7.99 l -0.62,-1.07 -1.07,0.63 c -0.47,1.76 -2.42,6.79 -4.66,6.69 -2.41,-0.13 -4.22,-5 -4.66,-6.69 l -0.85,-0.66"
       style="fill:#040606;fill-opacity:1;fill-rule:nonzero;stroke:none"
       id="path410" />
    <path
       d="m 3159.49,1988.14 -0.85,0.66 c -0.47,1.76 -2.42,6.82 -4.67,6.69 -2.39,-0.13 -4.21,-5 -4.66,-6.69 l -1.07,-0.63 -0.62,1.07 c 0.21,0.8 2.16,7.78 6.26,7.99 4.18,0.3 6.23,-7.15 6.46,-7.99 l -0.63,-1.07 -0.22,-0.03"
       style="fill:#040606;fill-opacity:1;fill-rule:nonzero;stroke:none"
       id="path412" />
    <path
       d="m 3283.36,1968.25 c -6.71,-11.2 -18.98,-16.19 -27.4,-11.14 -8.41,5.04 -9.78,18.21 -3.07,29.41 6.72,11.19 18.98,16.18 27.39,11.14 8.42,-5.05 9.79,-18.21 3.08,-29.41"
       style="fill:#8d3725;fill-opacity:1;fill-rule:nonzero;stroke:none"
       id="path414" />
    <path
       d="m 3279.69,1989.73 c -5.17,2.01 -10.91,0.67 -15.24,-2.62 -4.97,-3.8 -7.73,-9.64 -9.56,-15.45 -0.74,-2.36 2.85,-3.71 3.59,-1.34 1.55,4.88 3.66,9.83 7.66,13.21 3.39,2.87 7.96,4.26 12.22,2.61 2.3,-0.89 3.64,2.7 1.33,3.59"
       style="fill:#61261d;fill-opacity:1;fill-rule:nonzero;stroke:none"
       id="path416" />
    <path
       d="m 3273.42,1976.48 c -1.07,2.5 -3.19,4.55 -5.77,5.47 -2.41,0.85 -5.1,0.73 -7.44,-0.29 -0.92,-0.41 -1.43,-1.61 -0.98,-2.53 0.47,-0.94 1.56,-1.42 2.54,-0.99 l 0.62,0.26 0.1,0.02 0.32,0.09 1.33,0.19 h 0.02 l 0.42,-0.02 0.67,-0.06 0.33,-0.06 0.07,-0.01 0.66,-0.2 0.66,-0.27 0.18,-0.09 0.17,-0.1 1.2,-0.9 0.06,-0.06 0.24,-0.27 0.46,-0.57 0.26,-0.38 0.01,-0.01 0.01,-0.04 0.36,-0.73 c 0.4,-0.93 1.61,-1.44 2.53,-0.98 0.94,0.46 1.4,1.54 0.97,2.53"
       style="fill:#61261d;fill-opacity:1;fill-rule:nonzero;stroke:none"
       id="path418" />
    <path
       d="m 3297.46,1847.97 c 0,0 85.51,-227.29 89.05,-253.55 3.55,-26.25 -23.28,-235.82 -23.28,-235.82 l -37.97,3.91 c 0,0 3.78,214.53 2.71,220.91 -1.06,6.39 -35.65,146.35 -35.65,146.35 l 5.14,118.2"
       style="fill:#8d3725;fill-opacity:1;fill-rule:nonzero;stroke:none"
       id="path420" />
    <path
       d="m 3297.46,1847.97 c 13,-5.32 54.55,-117.03 54.55,-117.03 0,0 -17,-24.09 -59.69,-38.25 l -20.71,80.95 25.85,74.33"
       style="fill:#f78f5d;fill-opacity:1;fill-rule:nonzero;stroke:none"
       id="path422" />
    <path
       d="m 3144.62,1810.08 c -24.84,-74.9 -15.33,-183.56 -15.33,-183.56 l -91.73,-540.6 c 0,0 131.73,-25.6 310.77,-4.27 l -59.86,527.83 v 200.6 h -143.85"
       style="fill:#ffffff;fill-opacity:1;fill-rule:nonzero;stroke:none"
       id="path424" />
    <path
       d="m 3203.67,1524.69 c -18.32,0.01 -36.64,2.17 -54.59,6.51 -5.48,1.32 -3.71,9.25 1.28,9.25 0.39,0 0.8,-0.05 1.23,-0.15 17.14,-4.14 34.67,-6.23 52.2,-6.23 14.71,0 29.43,1.47 43.92,4.41 0.37,0.08 0.72,0.11 1.06,0.11 5.16,0 7.03,-8.07 1.45,-9.21 -15.38,-3.12 -30.97,-4.69 -46.55,-4.69"
       style="fill:#dddedb;fill-opacity:1;fill-rule:nonzero;stroke:none"
       id="path426" />
    <path
       d="m 3147.07,1851.24 -2.45,-41.16 h 14.97 l 2.91,47.06 -15.43,-5.9"
       style="fill:#ffffff;fill-opacity:1;fill-rule:nonzero;stroke:none"
       id="path428" />
    <path
       d="m 3288.47,1810.08 v 41.73 l -14.55,5.13 -0.71,-46.86 h 15.26"
       style="fill:#ffffff;fill-opacity:1;fill-rule:nonzero;stroke:none"
       id="path430" />
    <path
       d="m 3363.23,1358.6 c 0,0 6.61,-21.91 6.32,-26.84 -0.31,-4.93 -5.71,-41.68 -10.35,-41.68 -4.65,0 0,32.33 0,32.33 0,0 -11.85,-43.98 -15.89,-43.49 -4.06,0.5 2.69,43.66 2.69,43.66 0,0 -7.04,-51.04 -12.78,-50.3 -5.73,0.73 1.36,50.71 1.36,50.71 0,0 -13.95,-45.79 -18.68,-43.45 -4.71,2.34 6.2,47.38 6.2,47.38 l 2.61,35.59 38.52,-3.91"
       style="fill:#8d3725;fill-opacity:1;fill-rule:nonzero;stroke:none"
       id="path432" />
    <path
       d="m 3324.71,1362.51 c 0,0 -24.32,-15.53 -23.53,-21.31 0.78,-5.79 32.04,4.55 32.04,4.55 l -8.51,16.76"
       style="fill:#8d3725;fill-opacity:1;fill-rule:nonzero;stroke:none"
       id="path434" />
    <path
       d="m 2999.61,1412.75 c 0,0 -8.91,-24.42 -12.32,-27.76 -3.41,-3.34 -31.36,-26.06 -35.03,-22.78 -3.67,3.28 18.87,25.96 18.87,25.96 0,0 -35.3,-27.17 -38.6,-22.79 -2.6,3.44 28.32,30.85 28.32,30.85 0,0 -39.46,-30.9 -43.51,-26.33 -4.05,4.58 34.14,35.41 34.14,35.41 0,0 -35.68,-25.85 -37.9,-20.84 -2.22,5.02 32.38,32.52 32.38,32.52 l 26.2,21.29 27.45,-25.53"
       style="fill:#8d3725;fill-opacity:1;fill-rule:nonzero;stroke:none"
       id="path436" />
    <path
       d="m 2972.16,1438.28 c 0,0 -29.66,6.46 -32.77,1.73 -3.1,-4.73 28.24,-19.32 28.24,-19.32 l 4.53,17.59"
       style="fill:#8d3725;fill-opacity:1;fill-rule:nonzero;stroke:none"
       id="path438" />
  </g>
</svg>
